<svg xmlns="http://www.w3.org/2000/svg" viewBox="0 0 290 290" width="290" height="290" role="img" aria-label="QR code linking to qni.pages.dev">
<defs><radialGradient id="glow-data"><stop offset="0%"   stop-color="#f29453" stop-opacity="0.95"/><stop offset="35%"  stop-color="#f29453" stop-opacity="0.85"/><stop offset="70%"  stop-color="#f29453" stop-opacity="0.40"/><stop offset="100%" stop-color="#f29453" stop-opacity="0"/></radialGradient><radialGradient id="glow-comms"><stop offset="0%"   stop-color="#22c55e" stop-opacity="0.95"/><stop offset="35%"  stop-color="#22c55e" stop-opacity="0.85"/><stop offset="70%"  stop-color="#22c55e" stop-opacity="0.40"/><stop offset="100%" stop-color="#22c55e" stop-opacity="0"/></radialGradient><radialGradient id="glow-memory"><stop offset="0%"   stop-color="#9b87c4" stop-opacity="0.95"/><stop offset="35%"  stop-color="#9b87c4" stop-opacity="0.85"/><stop offset="70%"  stop-color="#9b87c4" stop-opacity="0.40"/><stop offset="100%" stop-color="#9b87c4" stop-opacity="0"/></radialGradient><radialGradient id="glow-photon"><stop offset="0%"   stop-color="#2f6fd6" stop-opacity="0.95"/><stop offset="35%"  stop-color="#2f6fd6" stop-opacity="0.85"/><stop offset="70%"  stop-color="#2f6fd6" stop-opacity="0.40"/><stop offset="100%" stop-color="#2f6fd6" stop-opacity="0"/></radialGradient></defs>
<rect width="290" height="290" fill="#ffffff"/>
<circle cx="105.0" cy="25.0" r="4.2" fill="#f29453" stroke="#8a3f0e" stroke-width="0.8"/>
<circle cx="135.0" cy="25.0" r="4.2" fill="#22c55e" stroke="#15803d" stroke-width="0.8"/>
<circle cx="145.0" cy="25.0" r="4.2" fill="#9b87c4" stroke="#6048a3" stroke-width="0.8"/>
<circle cx="175.0" cy="25.0" r="4.2" fill="#2f6fd6" stroke="#1a4a99" stroke-width="0.8"/>
<circle cx="185.0" cy="25.0" r="4.2" fill="#f29453" stroke="#8a3f0e" stroke-width="0.8"/>
<circle cx="105.0" cy="35.0" r="4.2" fill="#22c55e" stroke="#15803d" stroke-width="0.8"/>
<circle cx="115.0" cy="35.0" r="4.2" fill="#9b87c4" stroke="#6048a3" stroke-width="0.8"/>
<circle cx="125.0" cy="35.0" r="4.2" fill="#2f6fd6" stroke="#1a4a99" stroke-width="0.8"/>
<circle cx="145.0" cy="35.0" r="4.2" fill="#f29453" stroke="#8a3f0e" stroke-width="0.8"/>
<circle cx="155.0" cy="35.0" r="4.2" fill="#22c55e" stroke="#15803d" stroke-width="0.8"/>
<circle cx="165.0" cy="35.0" r="4.2" fill="#9b87c4" stroke="#6048a3" stroke-width="0.8"/>
<circle cx="185.0" cy="35.0" r="4.2" fill="#2f6fd6" stroke="#1a4a99" stroke-width="0.8"/>
<circle cx="125.0" cy="45.0" r="4.2" fill="#f29453" stroke="#8a3f0e" stroke-width="0.8"/>
<circle cx="135.0" cy="45.0" r="4.2" fill="#22c55e" stroke="#15803d" stroke-width="0.8"/>
<circle cx="145.0" cy="45.0" r="4.2" fill="#9b87c4" stroke="#6048a3" stroke-width="0.8"/>
<circle cx="165.0" cy="45.0" r="4.2" fill="#2f6fd6" stroke="#1a4a99" stroke-width="0.8"/>
<circle cx="175.0" cy="45.0" r="4.2" fill="#f29453" stroke="#8a3f0e" stroke-width="0.8"/>
<circle cx="185.0" cy="45.0" r="4.2" fill="#22c55e" stroke="#15803d" stroke-width="0.8"/>
<circle cx="125.0" cy="55.0" r="4.2" fill="#9b87c4" stroke="#6048a3" stroke-width="0.8"/>
<circle cx="165.0" cy="55.0" r="4.2" fill="#2f6fd6" stroke="#1a4a99" stroke-width="0.8"/>
<circle cx="105.0" cy="65.0" r="4.2" fill="#f29453" stroke="#8a3f0e" stroke-width="0.8"/>
<circle cx="115.0" cy="65.0" r="4.2" fill="#22c55e" stroke="#15803d" stroke-width="0.8"/>
<circle cx="125.0" cy="65.0" r="4.2" fill="#9b87c4" stroke="#6048a3" stroke-width="0.8"/>
<circle cx="135.0" cy="65.0" r="4.2" fill="#2f6fd6" stroke="#1a4a99" stroke-width="0.8"/>
<circle cx="155.0" cy="65.0" r="4.2" fill="#f29453" stroke="#8a3f0e" stroke-width="0.8"/>
<circle cx="165.0" cy="65.0" r="4.2" fill="#22c55e" stroke="#15803d" stroke-width="0.8"/>
<circle cx="175.0" cy="65.0" r="4.2" fill="#9b87c4" stroke="#6048a3" stroke-width="0.8"/>
<circle cx="105.0" cy="75.0" r="4.2" fill="#2f6fd6" stroke="#1a4a99" stroke-width="0.8"/>
<circle cx="135.0" cy="75.0" r="4.2" fill="#f29453" stroke="#8a3f0e" stroke-width="0.8"/>
<circle cx="175.0" cy="75.0" r="4.2" fill="#22c55e" stroke="#15803d" stroke-width="0.8"/>
<circle cx="105.0" cy="85.0" r="4.2" fill="#9b87c4" stroke="#6048a3" stroke-width="0.8"/>
<circle cx="125.0" cy="85.0" r="4.2" fill="#2f6fd6" stroke="#1a4a99" stroke-width="0.8"/>
<circle cx="145.0" cy="85.0" r="4.2" fill="#f29453" stroke="#8a3f0e" stroke-width="0.8"/>
<circle cx="165.0" cy="85.0" r="4.2" fill="#22c55e" stroke="#15803d" stroke-width="0.8"/>
<circle cx="185.0" cy="85.0" r="4.2" fill="#9b87c4" stroke="#6048a3" stroke-width="0.8"/>
<circle cx="105.0" cy="95.0" r="4.2" fill="#2f6fd6" stroke="#1a4a99" stroke-width="0.8"/>
<circle cx="125.0" cy="95.0" r="4.2" fill="#f29453" stroke="#8a3f0e" stroke-width="0.8"/>
<circle cx="135.0" cy="95.0" r="4.2" fill="#22c55e" stroke="#15803d" stroke-width="0.8"/>
<circle cx="145.0" cy="95.0" r="4.2" fill="#9b87c4" stroke="#6048a3" stroke-width="0.8"/>
<circle cx="165.0" cy="95.0" r="4.2" fill="#2f6fd6" stroke="#1a4a99" stroke-width="0.8"/>
<circle cx="175.0" cy="95.0" r="4.2" fill="#f29453" stroke="#8a3f0e" stroke-width="0.8"/>
<circle cx="185.0" cy="95.0" r="4.2" fill="#22c55e" stroke="#15803d" stroke-width="0.8"/>
<circle cx="25.0" cy="105.0" r="4.2" fill="#9b87c4" stroke="#6048a3" stroke-width="0.8"/>
<circle cx="35.0" cy="105.0" r="4.2" fill="#2f6fd6" stroke="#1a4a99" stroke-width="0.8"/>
<circle cx="45.0" cy="105.0" r="4.2" fill="#f29453" stroke="#8a3f0e" stroke-width="0.8"/>
<circle cx="75.0" cy="105.0" r="4.2" fill="#22c55e" stroke="#15803d" stroke-width="0.8"/>
<circle cx="85.0" cy="105.0" r="4.2" fill="#9b87c4" stroke="#6048a3" stroke-width="0.8"/>
<circle cx="105.0" cy="105.0" r="4.2" fill="#2f6fd6" stroke="#1a4a99" stroke-width="0.8"/>
<circle cx="115.0" cy="105.0" r="4.2" fill="#f29453" stroke="#8a3f0e" stroke-width="0.8"/>
<circle cx="125.0" cy="105.0" r="4.2" fill="#22c55e" stroke="#15803d" stroke-width="0.8"/>
<circle cx="155.0" cy="105.0" r="4.2" fill="#9b87c4" stroke="#6048a3" stroke-width="0.8"/>
<circle cx="165.0" cy="105.0" r="4.2" fill="#2f6fd6" stroke="#1a4a99" stroke-width="0.8"/>
<circle cx="195.0" cy="105.0" r="4.2" fill="#f29453" stroke="#8a3f0e" stroke-width="0.8"/>
<circle cx="205.0" cy="105.0" r="4.2" fill="#22c55e" stroke="#15803d" stroke-width="0.8"/>
<circle cx="215.0" cy="105.0" r="4.2" fill="#9b87c4" stroke="#6048a3" stroke-width="0.8"/>
<circle cx="225.0" cy="105.0" r="4.2" fill="#2f6fd6" stroke="#1a4a99" stroke-width="0.8"/>
<circle cx="255.0" cy="105.0" r="4.2" fill="#f29453" stroke="#8a3f0e" stroke-width="0.8"/>
<circle cx="265.0" cy="105.0" r="4.2" fill="#22c55e" stroke="#15803d" stroke-width="0.8"/>
<circle cx="25.0" cy="115.0" r="4.2" fill="#9b87c4" stroke="#6048a3" stroke-width="0.8"/>
<circle cx="45.0" cy="115.0" r="4.2" fill="#2f6fd6" stroke="#1a4a99" stroke-width="0.8"/>
<circle cx="55.0" cy="115.0" r="4.2" fill="#f29453" stroke="#8a3f0e" stroke-width="0.8"/>
<circle cx="75.0" cy="115.0" r="4.2" fill="#22c55e" stroke="#15803d" stroke-width="0.8"/>
<circle cx="115.0" cy="115.0" r="4.2" fill="#9b87c4" stroke="#6048a3" stroke-width="0.8"/>
<circle cx="125.0" cy="115.0" r="4.2" fill="#2f6fd6" stroke="#1a4a99" stroke-width="0.8"/>
<circle cx="155.0" cy="115.0" r="4.2" fill="#f29453" stroke="#8a3f0e" stroke-width="0.8"/>
<circle cx="165.0" cy="115.0" r="4.2" fill="#22c55e" stroke="#15803d" stroke-width="0.8"/>
<circle cx="205.0" cy="115.0" r="4.2" fill="#9b87c4" stroke="#6048a3" stroke-width="0.8"/>
<circle cx="245.0" cy="115.0" r="4.2" fill="#2f6fd6" stroke="#1a4a99" stroke-width="0.8"/>
<circle cx="265.0" cy="115.0" r="4.2" fill="#f29453" stroke="#8a3f0e" stroke-width="0.8"/>
<circle cx="25.0" cy="125.0" r="4.2" fill="#22c55e" stroke="#15803d" stroke-width="0.8"/>
<circle cx="35.0" cy="125.0" r="4.2" fill="#9b87c4" stroke="#6048a3" stroke-width="0.8"/>
<circle cx="45.0" cy="125.0" r="4.2" fill="#2f6fd6" stroke="#1a4a99" stroke-width="0.8"/>
<circle cx="65.0" cy="125.0" r="4.2" fill="#f29453" stroke="#8a3f0e" stroke-width="0.8"/>
<circle cx="85.0" cy="125.0" r="4.2" fill="#22c55e" stroke="#15803d" stroke-width="0.8"/>
<circle cx="95.0" cy="125.0" r="4.2" fill="#9b87c4" stroke="#6048a3" stroke-width="0.8"/>
<circle cx="105.0" cy="125.0" r="4.2" fill="#2f6fd6" stroke="#1a4a99" stroke-width="0.8"/>
<circle cx="135.0" cy="125.0" r="4.2" fill="#f29453" stroke="#8a3f0e" stroke-width="0.8"/>
<circle cx="175.0" cy="125.0" r="4.2" fill="#22c55e" stroke="#15803d" stroke-width="0.8"/>
<circle cx="245.0" cy="125.0" r="4.2" fill="#9b87c4" stroke="#6048a3" stroke-width="0.8"/>
<circle cx="265.0" cy="125.0" r="4.2" fill="#2f6fd6" stroke="#1a4a99" stroke-width="0.8"/>
<circle cx="25.0" cy="135.0" r="4.2" fill="#f29453" stroke="#8a3f0e" stroke-width="0.8"/>
<circle cx="35.0" cy="135.0" r="4.2" fill="#22c55e" stroke="#15803d" stroke-width="0.8"/>
<circle cx="55.0" cy="135.0" r="4.2" fill="#9b87c4" stroke="#6048a3" stroke-width="0.8"/>
<circle cx="75.0" cy="135.0" r="4.2" fill="#2f6fd6" stroke="#1a4a99" stroke-width="0.8"/>
<circle cx="105.0" cy="135.0" r="4.2" fill="#f29453" stroke="#8a3f0e" stroke-width="0.8"/>
<circle cx="115.0" cy="135.0" r="4.2" fill="#22c55e" stroke="#15803d" stroke-width="0.8"/>
<circle cx="155.0" cy="135.0" r="4.2" fill="#9b87c4" stroke="#6048a3" stroke-width="0.8"/>
<circle cx="205.0" cy="135.0" r="4.2" fill="#2f6fd6" stroke="#1a4a99" stroke-width="0.8"/>
<circle cx="265.0" cy="135.0" r="4.2" fill="#f29453" stroke="#8a3f0e" stroke-width="0.8"/>
<circle cx="25.0" cy="145.0" r="4.2" fill="#22c55e" stroke="#15803d" stroke-width="0.8"/>
<circle cx="35.0" cy="145.0" r="4.2" fill="#9b87c4" stroke="#6048a3" stroke-width="0.8"/>
<circle cx="45.0" cy="145.0" r="4.2" fill="#2f6fd6" stroke="#1a4a99" stroke-width="0.8"/>
<circle cx="75.0" cy="145.0" r="4.2" fill="#f29453" stroke="#8a3f0e" stroke-width="0.8"/>
<circle cx="85.0" cy="145.0" r="4.2" fill="#22c55e" stroke="#15803d" stroke-width="0.8"/>
<circle cx="95.0" cy="145.0" r="4.2" fill="#9b87c4" stroke="#6048a3" stroke-width="0.8"/>
<circle cx="115.0" cy="145.0" r="4.2" fill="#2f6fd6" stroke="#1a4a99" stroke-width="0.8"/>
<circle cx="135.0" cy="145.0" r="4.2" fill="#f29453" stroke="#8a3f0e" stroke-width="0.8"/>
<circle cx="145.0" cy="145.0" r="4.2" fill="#22c55e" stroke="#15803d" stroke-width="0.8"/>
<circle cx="155.0" cy="145.0" r="4.2" fill="#9b87c4" stroke="#6048a3" stroke-width="0.8"/>
<circle cx="175.0" cy="145.0" r="4.2" fill="#2f6fd6" stroke="#1a4a99" stroke-width="0.8"/>
<circle cx="185.0" cy="145.0" r="4.2" fill="#f29453" stroke="#8a3f0e" stroke-width="0.8"/>
<circle cx="205.0" cy="145.0" r="4.2" fill="#22c55e" stroke="#15803d" stroke-width="0.8"/>
<circle cx="235.0" cy="145.0" r="4.2" fill="#9b87c4" stroke="#6048a3" stroke-width="0.8"/>
<circle cx="35.0" cy="155.0" r="4.2" fill="#2f6fd6" stroke="#1a4a99" stroke-width="0.8"/>
<circle cx="65.0" cy="155.0" r="4.2" fill="#f29453" stroke="#8a3f0e" stroke-width="0.8"/>
<circle cx="105.0" cy="155.0" r="4.2" fill="#22c55e" stroke="#15803d" stroke-width="0.8"/>
<circle cx="115.0" cy="155.0" r="4.2" fill="#9b87c4" stroke="#6048a3" stroke-width="0.8"/>
<circle cx="145.0" cy="155.0" r="4.2" fill="#2f6fd6" stroke="#1a4a99" stroke-width="0.8"/>
<circle cx="185.0" cy="155.0" r="4.2" fill="#f29453" stroke="#8a3f0e" stroke-width="0.8"/>
<circle cx="205.0" cy="155.0" r="4.2" fill="#22c55e" stroke="#15803d" stroke-width="0.8"/>
<circle cx="215.0" cy="155.0" r="4.2" fill="#9b87c4" stroke="#6048a3" stroke-width="0.8"/>
<circle cx="235.0" cy="155.0" r="4.2" fill="#2f6fd6" stroke="#1a4a99" stroke-width="0.8"/>
<circle cx="245.0" cy="155.0" r="4.2" fill="#f29453" stroke="#8a3f0e" stroke-width="0.8"/>
<circle cx="265.0" cy="155.0" r="4.2" fill="#22c55e" stroke="#15803d" stroke-width="0.8"/>
<circle cx="25.0" cy="165.0" r="4.2" fill="#9b87c4" stroke="#6048a3" stroke-width="0.8"/>
<circle cx="35.0" cy="165.0" r="4.2" fill="#2f6fd6" stroke="#1a4a99" stroke-width="0.8"/>
<circle cx="65.0" cy="165.0" r="4.2" fill="#f29453" stroke="#8a3f0e" stroke-width="0.8"/>
<circle cx="85.0" cy="165.0" r="4.2" fill="#22c55e" stroke="#15803d" stroke-width="0.8"/>
<circle cx="105.0" cy="165.0" r="4.2" fill="#9b87c4" stroke="#6048a3" stroke-width="0.8"/>
<circle cx="115.0" cy="165.0" r="4.2" fill="#2f6fd6" stroke="#1a4a99" stroke-width="0.8"/>
<circle cx="125.0" cy="165.0" r="4.2" fill="#f29453" stroke="#8a3f0e" stroke-width="0.8"/>
<circle cx="145.0" cy="165.0" r="4.2" fill="#22c55e" stroke="#15803d" stroke-width="0.8"/>
<circle cx="155.0" cy="165.0" r="4.2" fill="#9b87c4" stroke="#6048a3" stroke-width="0.8"/>
<circle cx="165.0" cy="165.0" r="4.2" fill="#2f6fd6" stroke="#1a4a99" stroke-width="0.8"/>
<circle cx="185.0" cy="165.0" r="4.2" fill="#f29453" stroke="#8a3f0e" stroke-width="0.8"/>
<circle cx="205.0" cy="165.0" r="4.2" fill="#22c55e" stroke="#15803d" stroke-width="0.8"/>
<circle cx="225.0" cy="165.0" r="4.2" fill="#9b87c4" stroke="#6048a3" stroke-width="0.8"/>
<circle cx="235.0" cy="165.0" r="4.2" fill="#2f6fd6" stroke="#1a4a99" stroke-width="0.8"/>
<circle cx="265.0" cy="165.0" r="4.2" fill="#f29453" stroke="#8a3f0e" stroke-width="0.8"/>
<circle cx="45.0" cy="175.0" r="4.2" fill="#22c55e" stroke="#15803d" stroke-width="0.8"/>
<circle cx="65.0" cy="175.0" r="4.2" fill="#9b87c4" stroke="#6048a3" stroke-width="0.8"/>
<circle cx="75.0" cy="175.0" r="4.2" fill="#2f6fd6" stroke="#1a4a99" stroke-width="0.8"/>
<circle cx="115.0" cy="175.0" r="4.2" fill="#f29453" stroke="#8a3f0e" stroke-width="0.8"/>
<circle cx="125.0" cy="175.0" r="4.2" fill="#22c55e" stroke="#15803d" stroke-width="0.8"/>
<circle cx="135.0" cy="175.0" r="4.2" fill="#9b87c4" stroke="#6048a3" stroke-width="0.8"/>
<circle cx="145.0" cy="175.0" r="4.2" fill="#2f6fd6" stroke="#1a4a99" stroke-width="0.8"/>
<circle cx="165.0" cy="175.0" r="4.2" fill="#f29453" stroke="#8a3f0e" stroke-width="0.8"/>
<circle cx="175.0" cy="175.0" r="4.2" fill="#22c55e" stroke="#15803d" stroke-width="0.8"/>
<circle cx="185.0" cy="175.0" r="4.2" fill="#9b87c4" stroke="#6048a3" stroke-width="0.8"/>
<circle cx="215.0" cy="175.0" r="4.2" fill="#2f6fd6" stroke="#1a4a99" stroke-width="0.8"/>
<circle cx="235.0" cy="175.0" r="4.2" fill="#f29453" stroke="#8a3f0e" stroke-width="0.8"/>
<circle cx="255.0" cy="175.0" r="4.2" fill="#22c55e" stroke="#15803d" stroke-width="0.8"/>
<circle cx="25.0" cy="185.0" r="4.2" fill="#9b87c4" stroke="#6048a3" stroke-width="0.8"/>
<circle cx="35.0" cy="185.0" r="4.2" fill="#2f6fd6" stroke="#1a4a99" stroke-width="0.8"/>
<circle cx="55.0" cy="185.0" r="4.2" fill="#f29453" stroke="#8a3f0e" stroke-width="0.8"/>
<circle cx="85.0" cy="185.0" r="4.2" fill="#22c55e" stroke="#15803d" stroke-width="0.8"/>
<circle cx="95.0" cy="185.0" r="4.2" fill="#9b87c4" stroke="#6048a3" stroke-width="0.8"/>
<circle cx="125.0" cy="185.0" r="4.2" fill="#2f6fd6" stroke="#1a4a99" stroke-width="0.8"/>
<circle cx="155.0" cy="185.0" r="4.2" fill="#f29453" stroke="#8a3f0e" stroke-width="0.8"/>
<circle cx="165.0" cy="185.0" r="4.2" fill="#22c55e" stroke="#15803d" stroke-width="0.8"/>
<circle cx="255.0" cy="185.0" r="4.2" fill="#9b87c4" stroke="#6048a3" stroke-width="0.8"/>
<circle cx="265.0" cy="185.0" r="4.2" fill="#2f6fd6" stroke="#1a4a99" stroke-width="0.8"/>
<circle cx="105.0" cy="195.0" r="4.2" fill="#f29453" stroke="#8a3f0e" stroke-width="0.8"/>
<circle cx="115.0" cy="195.0" r="4.2" fill="#22c55e" stroke="#15803d" stroke-width="0.8"/>
<circle cx="125.0" cy="195.0" r="4.2" fill="#9b87c4" stroke="#6048a3" stroke-width="0.8"/>
<circle cx="155.0" cy="195.0" r="4.2" fill="#2f6fd6" stroke="#1a4a99" stroke-width="0.8"/>
<circle cx="165.0" cy="195.0" r="4.2" fill="#f29453" stroke="#8a3f0e" stroke-width="0.8"/>
<circle cx="255.0" cy="195.0" r="4.2" fill="#22c55e" stroke="#15803d" stroke-width="0.8"/>
<circle cx="265.0" cy="195.0" r="4.2" fill="#9b87c4" stroke="#6048a3" stroke-width="0.8"/>
<circle cx="115.0" cy="205.0" r="4.2" fill="#2f6fd6" stroke="#1a4a99" stroke-width="0.8"/>
<circle cx="135.0" cy="205.0" r="4.2" fill="#f29453" stroke="#8a3f0e" stroke-width="0.8"/>
<circle cx="175.0" cy="205.0" r="4.2" fill="#22c55e" stroke="#15803d" stroke-width="0.8"/>
<circle cx="235.0" cy="205.0" r="4.2" fill="#9b87c4" stroke="#6048a3" stroke-width="0.8"/>
<circle cx="245.0" cy="205.0" r="4.2" fill="#2f6fd6" stroke="#1a4a99" stroke-width="0.8"/>
<circle cx="265.0" cy="205.0" r="4.2" fill="#f29453" stroke="#8a3f0e" stroke-width="0.8"/>
<circle cx="105.0" cy="215.0" r="4.2" fill="#22c55e" stroke="#15803d" stroke-width="0.8"/>
<circle cx="115.0" cy="215.0" r="4.2" fill="#9b87c4" stroke="#6048a3" stroke-width="0.8"/>
<circle cx="155.0" cy="215.0" r="4.2" fill="#2f6fd6" stroke="#1a4a99" stroke-width="0.8"/>
<circle cx="235.0" cy="215.0" r="4.2" fill="#f29453" stroke="#8a3f0e" stroke-width="0.8"/>
<circle cx="255.0" cy="215.0" r="4.2" fill="#22c55e" stroke="#15803d" stroke-width="0.8"/>
<circle cx="135.0" cy="225.0" r="4.2" fill="#9b87c4" stroke="#6048a3" stroke-width="0.8"/>
<circle cx="145.0" cy="225.0" r="4.2" fill="#2f6fd6" stroke="#1a4a99" stroke-width="0.8"/>
<circle cx="155.0" cy="225.0" r="4.2" fill="#f29453" stroke="#8a3f0e" stroke-width="0.8"/>
<circle cx="175.0" cy="225.0" r="4.2" fill="#22c55e" stroke="#15803d" stroke-width="0.8"/>
<circle cx="235.0" cy="225.0" r="4.2" fill="#9b87c4" stroke="#6048a3" stroke-width="0.8"/>
<circle cx="125.0" cy="235.0" r="4.2" fill="#2f6fd6" stroke="#1a4a99" stroke-width="0.8"/>
<circle cx="145.0" cy="235.0" r="4.2" fill="#f29453" stroke="#8a3f0e" stroke-width="0.8"/>
<circle cx="185.0" cy="235.0" r="4.2" fill="#22c55e" stroke="#15803d" stroke-width="0.8"/>
<circle cx="195.0" cy="235.0" r="4.2" fill="#9b87c4" stroke="#6048a3" stroke-width="0.8"/>
<circle cx="225.0" cy="235.0" r="4.2" fill="#2f6fd6" stroke="#1a4a99" stroke-width="0.8"/>
<circle cx="105.0" cy="245.0" r="4.2" fill="#f29453" stroke="#8a3f0e" stroke-width="0.8"/>
<circle cx="145.0" cy="245.0" r="4.2" fill="#22c55e" stroke="#15803d" stroke-width="0.8"/>
<circle cx="155.0" cy="245.0" r="4.2" fill="#9b87c4" stroke="#6048a3" stroke-width="0.8"/>
<circle cx="165.0" cy="245.0" r="4.2" fill="#2f6fd6" stroke="#1a4a99" stroke-width="0.8"/>
<circle cx="185.0" cy="245.0" r="4.2" fill="#f29453" stroke="#8a3f0e" stroke-width="0.8"/>
<circle cx="195.0" cy="245.0" r="4.2" fill="#22c55e" stroke="#15803d" stroke-width="0.8"/>
<circle cx="225.0" cy="245.0" r="4.2" fill="#9b87c4" stroke="#6048a3" stroke-width="0.8"/>
<circle cx="245.0" cy="245.0" r="4.2" fill="#2f6fd6" stroke="#1a4a99" stroke-width="0.8"/>
<circle cx="255.0" cy="245.0" r="4.2" fill="#f29453" stroke="#8a3f0e" stroke-width="0.8"/>
<circle cx="265.0" cy="245.0" r="4.2" fill="#22c55e" stroke="#15803d" stroke-width="0.8"/>
<circle cx="105.0" cy="255.0" r="4.2" fill="#9b87c4" stroke="#6048a3" stroke-width="0.8"/>
<circle cx="125.0" cy="255.0" r="4.2" fill="#2f6fd6" stroke="#1a4a99" stroke-width="0.8"/>
<circle cx="135.0" cy="255.0" r="4.2" fill="#f29453" stroke="#8a3f0e" stroke-width="0.8"/>
<circle cx="145.0" cy="255.0" r="4.2" fill="#22c55e" stroke="#15803d" stroke-width="0.8"/>
<circle cx="165.0" cy="255.0" r="4.2" fill="#9b87c4" stroke="#6048a3" stroke-width="0.8"/>
<circle cx="175.0" cy="255.0" r="4.2" fill="#2f6fd6" stroke="#1a4a99" stroke-width="0.8"/>
<circle cx="185.0" cy="255.0" r="4.2" fill="#f29453" stroke="#8a3f0e" stroke-width="0.8"/>
<circle cx="195.0" cy="255.0" r="4.2" fill="#22c55e" stroke="#15803d" stroke-width="0.8"/>
<circle cx="215.0" cy="255.0" r="4.2" fill="#9b87c4" stroke="#6048a3" stroke-width="0.8"/>
<circle cx="225.0" cy="255.0" r="4.2" fill="#2f6fd6" stroke="#1a4a99" stroke-width="0.8"/>
<circle cx="235.0" cy="255.0" r="4.2" fill="#f29453" stroke="#8a3f0e" stroke-width="0.8"/>
<circle cx="105.0" cy="265.0" r="4.2" fill="#22c55e" stroke="#15803d" stroke-width="0.8"/>
<circle cx="115.0" cy="265.0" r="4.2" fill="#9b87c4" stroke="#6048a3" stroke-width="0.8"/>
<circle cx="155.0" cy="265.0" r="4.2" fill="#2f6fd6" stroke="#1a4a99" stroke-width="0.8"/>
<circle cx="165.0" cy="265.0" r="4.2" fill="#f29453" stroke="#8a3f0e" stroke-width="0.8"/>
<circle cx="185.0" cy="265.0" r="4.2" fill="#22c55e" stroke="#15803d" stroke-width="0.8"/>
<circle cx="205.0" cy="265.0" r="4.2" fill="#9b87c4" stroke="#6048a3" stroke-width="0.8"/>
<circle cx="225.0" cy="265.0" r="4.2" fill="#2f6fd6" stroke="#1a4a99" stroke-width="0.8"/>
<circle cx="235.0" cy="265.0" r="4.2" fill="#f29453" stroke="#8a3f0e" stroke-width="0.8"/>
<circle cx="265.0" cy="265.0" r="4.2" fill="#22c55e" stroke="#15803d" stroke-width="0.8"/>
<circle cx="55.0" cy="55.0" r="43.75" fill="url(#glow-data)"/>
<circle cx="55.0" cy="55.0" r="35.0" fill="#ffffff"/>
<path d="M 20.0,55.0 a 35.0,35.0 0 1,0 70.0,0 a 35.0,35.0 0 1,0 -70.0,0 M 30.0,55.0 a 25.0,25.0 0 1,0 50.0,0 a 25.0,25.0 0 1,0 -50.0,0" fill="#f29453" stroke="#8a3f0e" stroke-width="0.4" fill-rule="evenodd"/>
<circle cx="55.0" cy="55.0" r="15.0" fill="#f29453" stroke="#8a3f0e" stroke-width="0.4"/>
<circle cx="235.0" cy="55.0" r="43.75" fill="url(#glow-comms)"/>
<circle cx="235.0" cy="55.0" r="35.0" fill="#ffffff"/>
<path d="M 200.0,55.0 a 35.0,35.0 0 1,0 70.0,0 a 35.0,35.0 0 1,0 -70.0,0 M 210.0,55.0 a 25.0,25.0 0 1,0 50.0,0 a 25.0,25.0 0 1,0 -50.0,0" fill="#22c55e" stroke="#15803d" stroke-width="0.4" fill-rule="evenodd"/>
<circle cx="235.0" cy="55.0" r="15.0" fill="#22c55e" stroke="#15803d" stroke-width="0.4"/>
<circle cx="55.0" cy="235.0" r="43.75" fill="url(#glow-memory)"/>
<circle cx="55.0" cy="235.0" r="35.0" fill="#ffffff"/>
<path d="M 20.0,235.0 a 35.0,35.0 0 1,0 70.0,0 a 35.0,35.0 0 1,0 -70.0,0 M 30.0,235.0 a 25.0,25.0 0 1,0 50.0,0 a 25.0,25.0 0 1,0 -50.0,0" fill="#9b87c4" stroke="#6048a3" stroke-width="0.4" fill-rule="evenodd"/>
<circle cx="55.0" cy="235.0" r="15.0" fill="#9b87c4" stroke="#6048a3" stroke-width="0.4"/>
<circle cx="205.0" cy="205.0" r="31.25" fill="url(#glow-photon)"/>
<circle cx="205.0" cy="205.0" r="25.0" fill="#ffffff"/>
<path d="M 180.0,205.0 a 25.0,25.0 0 1,0 50.0,0 a 25.0,25.0 0 1,0 -50.0,0 M 190.0,205.0 a 15.0,15.0 0 1,0 30.0,0 a 15.0,15.0 0 1,0 -30.0,0" fill="#2f6fd6" stroke="#1a4a99" stroke-width="0.4" fill-rule="evenodd"/>
<circle cx="205.0" cy="205.0" r="5.0" fill="#2f6fd6" stroke="#1a4a99" stroke-width="0.4"/>
</svg>