<?xml version="1.0" encoding="UTF-8"?>
<svg id="Layer_14" xmlns="http://www.w3.org/2000/svg" xmlns:xlink="http://www.w3.org/1999/xlink" viewBox="0 0 3770 1000">
  <defs>
    <style>
      .cls-1 {
        fill: none;
      }

      .cls-2 {
        fill: #050057;
      }

      .cls-3 {
        clip-path: url(#clippath-1);
      }

      .cls-4 {
        fill: #96c909;
      }

      .cls-5 {
        clip-path: url(#clippath-2);
      }

      .cls-6 {
        clip-path: url(#clippath);
      }
    </style>
    <clipPath id="clippath">
      <rect class="cls-1" width="3770.12" height="1000"/>
    </clipPath>
    <clipPath id="clippath-1">
      <rect class="cls-1" width="3770.12" height="1000"/>
    </clipPath>
    <clipPath id="clippath-2">
      <rect class="cls-1" width="3770.12" height="1000"/>
    </clipPath>
  </defs>
  <g class="cls-6">
    <path class="cls-4" d="M2439.21,845.35c-16.13,12.57-32.76,23.62-49.77,33.84l64.31,120.81c24.5-12.89,48.12-28,70.59-45.58,22.54-17.65,42.85-36.88,61.2-57.52l-101.57-91.54c-13.9,14.09-28.82,27.43-44.76,39.99"/>
  </g>
  <path class="cls-2" d="M436.33,219.7l131.92,352.78h-262.51l130.59-352.78ZM364.53,14.58l-6.6,6.54L0,922.53l6.54,6.54h160.68l6.54-6.54,77.07-198.58h372.27l75.86,198.58,6.48,6.54h160.74l6.54-6.54L516.06,21.12l-6.6-6.54h-144.93Z"/>
  <g class="cls-3">
    <path class="cls-2" d="M1135,396.08h103.23c84.94,0,134.52-41.77,134.52-114.97s-49.58-113.64-134.52-113.64h-103.23v228.61ZM1238.22,14.6c189.44,0,307.01,116.3,307.01,266.51,0,104.49-56.18,188.17-146.27,227.34l305.68,414.11-6.6,6.54h-178.9l-6.54-6.54-280.92-374.94h-96.69v374.94l-6.48,6.54h-138.52l-6.54-6.54V21.14l6.54-6.54h248.22Z"/>
  </g>
  <polygon class="cls-2" points="2759.99 14.58 2753.45 21.12 2753.45 922.53 2759.99 929.07 2898.45 929.07 2904.93 922.53 2904.93 21.12 2898.45 14.58 2759.99 14.58"/>
  <polygon class="cls-2" points="3045.04 14.58 3038.57 21.12 3038.57 160.91 3045.04 167.45 3328.62 167.45 3328.62 922.53 3335.1 929.07 3473.62 929.07 3480.16 922.53 3480.16 167.45 3763.55 167.45 3770.16 160.91 3770.16 21.12 3763.55 14.58 3045.04 14.58"/>
  <g class="cls-5">
    <path class="cls-2" d="M2519.81,181.49c-160.55-205.56-457.34-241.94-662.84-81.39-205.56,160.61-242.06,457.34-81.45,662.9,142.97,182.96,393.85,231.84,592.31,126.97l-66.59-125.32c-138.84,73.07-314.06,38.92-413.98-88.94-112.37-143.92-86.78-351.57,57.01-463.88,143.73-112.37,351.45-86.85,463.75,56.95,99.92,127.86,90.72,306.25-13.71,423.12l105.38,94.91c149.76-167.03,163.15-422.3,20.12-605.32"/>
  </g>
</svg>