<?xml version="1.0" encoding="utf-8"?>
<!-- Generator: Adobe Illustrator 25.4.1, SVG Export Plug-In . SVG Version: 6.00 Build 0)  -->
<svg version="1.1" id="Layer_1" xmlns="http://www.w3.org/2000/svg" xmlns:xlink="http://www.w3.org/1999/xlink" x="0px" y="0px"
	 viewBox="0 0 467.11 120.41" style="enable-background:new 0 0 467.11 120.41;" xml:space="preserve">
<style type="text/css">
	.st0{fill-rule:evenodd;clip-rule:evenodd;fill:#F15D22;}
	.st1{fill:#F15D22;}
</style>
<g>
	<path d="M145.37,10.45v4.83c-2.59-3.68-7.06-5.69-11.97-5.69c-9.73,0-17.23,8.07-17.23,18.52s7.5,18.52,17.23,18.52
		c4.9,0,9.37-2.31,11.97-5.98v5.12h8.22V10.45H145.37z M124.54,28.11c0-6.13,4.61-10.96,10.6-10.96c5.98,0,10.6,4.83,10.6,10.96
		s-4.61,10.96-10.6,10.96C129.15,39.07,124.54,34.24,124.54,28.11z"/>
	<path d="M164.1,0v10.45h-5.26v7.06h5.26v17.37c0,7.35,4.25,11.75,11.32,11.75c2.88,0,4.97-0.58,6.34-1.3v-7.42
		c-1.08,0.72-2.59,1.08-3.89,1.08c-3.75,0-5.48-1.73-5.48-5.62V17.52h9.37v-7.06h-9.37V0H164.1z"/>
	<path d="M203.83,9.59c-10.81,0-18.81,8.15-18.81,18.52s8,18.52,18.81,18.52c10.81,0,18.81-8.15,18.81-18.52
		S214.65,9.59,203.83,9.59z M203.83,17.23c5.91,0,10.52,4.83,10.52,10.88S209.75,39,203.83,39c-5.91,0-10.52-4.83-10.52-10.88
		S197.92,17.23,203.83,17.23z"/>
	<path d="M237.61,27.03c0-5.98,3.03-9.8,7.57-9.8c4.4,0,6.78,3.32,6.78,8.72v19.82h8.36v-19.1c0.07-5.77,3.1-9.44,7.57-9.44
		c4.4,0,6.78,3.24,6.78,8.43v20.11h8.36v-21.7c0-8.79-4.69-14.49-12.83-14.49c-5.91,0-9.73,3.17-11.75,6.56
		c-1.95-4.11-5.69-6.56-10.74-6.56c-4.76,0-8.22,2.16-10.09,5.55v-4.69h-8.36v35.32h8.36V27.03z"/>
	<path d="M116.18,81.67c0,10.74,7.64,18.52,18.6,18.52c3.39,0,6.7-0.86,9.66-2.52v-8.29c-2.52,1.73-5.55,3.17-8.87,3.17
		c-6.34,0-10.96-4.76-10.96-10.88c0-6.2,4.69-10.88,10.96-10.88c3.1,0,5.98,1.08,8.72,3.17v-8.29c-2.74-1.66-6.05-2.52-9.44-2.52
		C123.89,63.15,116.18,71.15,116.18,81.67z"/>
	<path d="M167.55,63.15c-10.81,0-18.81,8.15-18.81,18.53s8,18.52,18.81,18.52c10.81,0,18.81-8.14,18.81-18.52
		S178.36,63.15,167.55,63.15z M167.55,70.79c5.91,0,10.52,4.83,10.52,10.88c0,6.05-4.61,10.88-10.52,10.88
		c-5.91,0-10.52-4.83-10.52-10.88C157.02,75.62,161.64,70.79,167.55,70.79z"/>
	<path d="M201.32,80.59c0-5.98,3.03-9.8,7.57-9.8c4.4,0,6.78,3.32,6.78,8.72v19.82h8.36v-19.1c0.07-5.77,3.1-9.44,7.57-9.44
		c4.4,0,6.78,3.24,6.78,8.43v20.11h8.36v-21.7c0-8.79-4.69-14.49-12.83-14.49c-5.91,0-9.73,3.17-11.75,6.56
		c-1.95-4.11-5.69-6.56-10.74-6.56c-4.76,0-8.22,2.16-10.09,5.55v-4.69h-8.36v35.32h8.36V80.59z"/>
	<path d="M255.22,64.01v50.31h8.29V94.5c2.59,3.6,7.06,5.69,11.97,5.69c9.73,0,17.23-8.14,17.23-18.52
		c0-10.52-7.5-18.53-17.23-18.53c-4.9,0-9.37,2.31-11.97,5.91v-5.05H255.22z M284.34,81.67c0,6.13-4.61,10.96-10.6,10.96
		c-5.98,0-10.6-4.83-10.6-10.96c0-6.13,4.61-10.96,10.6-10.96C279.73,70.71,284.34,75.54,284.34,81.67z"/>
	<path d="M322.9,82.61c0,6.05-3.24,9.88-8.22,9.88c-4.83,0-7.64-3.32-7.64-8.79V64.01h-8.36v21.26c0,9.15,5.12,14.92,13.48,14.92
		c4.9,0,8.58-2.23,10.74-5.55v4.69h8.36V64.01h-8.36V82.61z"/>
	<path d="M341.7,53.56v10.45h-5.26v7.06h5.26v17.37c0,7.35,4.25,11.75,11.32,11.75c2.88,0,4.97-0.58,6.34-1.3v-7.42
		c-1.08,0.72-2.59,1.08-3.89,1.08c-3.75,0-5.48-1.73-5.48-5.62V71.07h9.37v-7.06h-9.37V53.56H341.7z"/>
	<path d="M374.14,99.33V64.01h-8.36v35.32H374.14z M375.08,53.7c0-2.81-2.23-5.19-5.19-5.19c-2.81,0-5.12,2.31-5.12,5.19
		c0,2.81,2.31,5.12,5.12,5.12C372.84,58.82,375.08,56.44,375.08,53.7z"/>
	<path d="M391.42,80.73c0-6.05,3.32-9.87,8.29-9.87c5.05,0,7.86,3.32,7.86,8.79v19.68h8.36V78.07c0-9.15-5.12-14.92-13.69-14.92
		c-4.98,0-8.65,2.23-10.81,5.55v-4.69h-8.36v35.32h8.36V80.73z"/>
	<path d="M450.65,93.28v3.96c0,6.85-3.89,11.03-10.23,11.03c-4.47,0-8.29-2.23-10.45-6.2l-6.63,4.18c3.03,5.84,9.23,9.3,17.08,9.3
		c11.53,0,18.45-7.42,18.45-18.38V64.01h-8.22v4.76c-2.38-3.46-6.7-5.62-11.6-5.62c-9.59,0-16.94,7.86-16.94,18.02
		c0,10.16,7.35,17.8,16.94,17.8C443.88,98.97,448.27,96.66,450.65,93.28z M451.01,81.17c0,5.91-4.47,10.6-10.23,10.6
		s-10.23-4.69-10.23-10.6c0-5.84,4.47-10.52,10.23-10.52S451.01,75.33,451.01,81.17z"/>
	<g>
		<path class="st0" d="M53.91,8.67c0.03,0,0.07,0,0.1,0v0c10.68,0.1,17.43,7.63,21.75,15.75c4.36,8.22,7.25,18.86,9.66,28.71
			c0.55,2.23,1.07,4.42,1.57,6.55c1.82,7.65,3.46,14.56,5.44,20.04c1.26,3.49,2.46,5.81,3.55,7.16c0.51,0.64,0.87,0.9,1.03,0.99
			c0.1,0.06,0.12,0.05,0.14,0.05c0,0,0,0,0.01,0c3.5,0,6.34,2.84,6.34,6.34c0,3.5-2.84,6.34-6.34,6.34c-4.92,0-8.57-2.68-11.05-5.77
			c-2.4-2.98-4.17-6.86-5.6-10.8c-2.25-6.23-4.12-14.11-5.97-21.87c-0.48-2.03-0.96-4.04-1.44-6.02
			c-2.43-9.96-5.02-19.14-8.54-25.78c-3.52-6.62-6.97-8.97-10.65-9.02c-3.68,0.04-7.13,2.39-10.65,9.02
			c-3.53,6.64-6.11,15.82-8.54,25.78c-0.48,1.98-0.96,4-1.44,6.02c-1.84,7.76-3.71,15.64-5.97,21.87c-1.43,3.94-3.2,7.82-5.6,10.8
			c-2.49,3.09-6.13,5.77-11.05,5.77c-3.5,0-6.34-2.84-6.34-6.34c0-3.5,2.84-6.34,6.34-6.34c0,0,0,0,0.01,0c0.02,0,0.04,0,0.14-0.05
			c0.16-0.09,0.52-0.35,1.03-0.99c1.09-1.35,2.29-3.67,3.55-7.16c1.98-5.48,3.62-12.39,5.44-20.04c0.51-2.13,1.03-4.32,1.57-6.55
			c2.41-9.86,5.3-20.49,9.66-28.71C36.37,16.3,43.13,8.77,53.8,8.67v0C53.84,8.67,53.87,8.67,53.91,8.67z"/>
		<circle class="st1" cx="53.91" cy="55.84" r="10.07"/>
	</g>
</g>
</svg>
