<svg xmlns="http://www.w3.org/2000/svg" width="200" height="68.828" viewBox="0 0 200 68.828"><g transform="translate(-861.178 -505.995)"><path d="M864.9,517.6h-3.726V557.56h22.351v-3.386H864.9Z" fill="#231815"/><path d="M916.749,554.061a12.688,12.688,0,0,0,4.176-2.681,17.32,17.32,0,0,0,3.16-4.091,20.573,20.573,0,0,0,1.977-4.939,21.064,21.064,0,0,0,.677-5.278,22.414,22.414,0,0,0-1.44-8.1,19.179,19.179,0,0,0-4.064-6.492,18.836,18.836,0,0,0-6.377-4.317,23.021,23.021,0,0,0-16.763,0,18.846,18.846,0,0,0-6.377,4.317,19.179,19.179,0,0,0-4.064,6.492,22.412,22.412,0,0,0-1.439,8.1,19.963,19.963,0,0,0,6.321,14.873,20.513,20.513,0,0,0,6.688,4.147,21.991,21.991,0,0,0,7.986,1.468h22.012v-3.386H916.749Zm-9.651.113a17.234,17.234,0,0,1-6.914-1.355,17.013,17.013,0,0,1-5.419-3.668,16.5,16.5,0,0,1-3.556-5.447,17.489,17.489,0,0,1-1.269-6.632,19.743,19.743,0,0,1,1.129-6.745,16.017,16.017,0,0,1,3.245-5.446,14.648,14.648,0,0,1,5.193-3.611,19.349,19.349,0,0,1,13.94,0,14.653,14.653,0,0,1,5.192,3.611,16.034,16.034,0,0,1,3.246,5.446,20.442,20.442,0,0,1,.084,13.152,16.364,16.364,0,0,1-3.075,5.446,15.057,15.057,0,0,1-11.8,5.249Z" fill="#231815"/><path d="M960.545,541.3a28.557,28.557,0,0,1-.395,4.572,13.789,13.789,0,0,1-1.551,4.515,9.538,9.538,0,0,1-3.274,3.443,12.314,12.314,0,0,1-11.231,0,9.538,9.538,0,0,1-3.274-3.443,13.814,13.814,0,0,1-1.552-4.515,28.445,28.445,0,0,1-.4-4.572V517.6h-3.725v24.664a25.231,25.231,0,0,0,.734,6.152,14.059,14.059,0,0,0,2.455,5.193,12.3,12.3,0,0,0,4.515,3.611,18.03,18.03,0,0,0,13.715,0,12.325,12.325,0,0,0,4.515-3.611,14.091,14.091,0,0,0,2.455-5.193,25.279,25.279,0,0,0,.733-6.152V517.6h-3.725Z" fill="#231815"/><path d="M1007.447,522.539a19.207,19.207,0,0,0-6.519-4.374,23.019,23.019,0,0,0-16.762,0,19.207,19.207,0,0,0-6.519,4.374,20.008,20.008,0,0,0-4.233,6.632,24.044,24.044,0,0,0,0,16.848,19.951,19.951,0,0,0,4.233,6.66,18.881,18.881,0,0,0,6.519,4.345,23.405,23.405,0,0,0,16.762,0,18.881,18.881,0,0,0,6.519-4.345,19.985,19.985,0,0,0,4.234-6.66,24.059,24.059,0,0,0,0-16.848A20.042,20.042,0,0,0,1007.447,522.539Zm.847,21.983a16.5,16.5,0,0,1-3.387,5.588,15.667,15.667,0,0,1-5.333,3.725,18.9,18.9,0,0,1-14.053,0,15.652,15.652,0,0,1-5.334-3.725,16.484,16.484,0,0,1-3.387-5.588,20.924,20.924,0,0,1,0-13.883,16.485,16.485,0,0,1,3.387-5.588,15.638,15.638,0,0,1,5.334-3.725,18.9,18.9,0,0,1,14.053,0,15.653,15.653,0,0,1,5.333,3.725,16.5,16.5,0,0,1,3.387,5.588,20.924,20.924,0,0,1,0,13.883Z" fill="#231815"/><path d="M1055.872,517.6l-14.561,33.525L1026.749,517.6h-5.588V557.56h3.725V522.341H1025l15.465,35.219h1.636l15.239-35.219h.114V557.56h3.725V517.6Z" fill="#231815"/><path d="M885.961,573.847a2.731,2.731,0,0,0,.9-.58,3.773,3.773,0,0,0,.684-.884,4.453,4.453,0,0,0,.426-1.068,4.513,4.513,0,0,0,.147-1.14,4.855,4.855,0,0,0-.311-1.751,4.133,4.133,0,0,0-.879-1.4,4.083,4.083,0,0,0-1.379-.934,4.982,4.982,0,0,0-3.623,0,4.083,4.083,0,0,0-1.379.934,4.147,4.147,0,0,0-.878,1.4,4.857,4.857,0,0,0-.312,1.751,4.326,4.326,0,0,0,1.367,3.215,4.458,4.458,0,0,0,1.446.9,4.77,4.77,0,0,0,1.727.317h4.757v-.733h-2.7Zm-2.086.024a3.75,3.75,0,0,1-1.495-.292,3.684,3.684,0,0,1-1.171-.793,3.534,3.534,0,0,1-.768-1.178,3.758,3.758,0,0,1-.276-1.433,4.234,4.234,0,0,1,.245-1.458,3.442,3.442,0,0,1,.7-1.177,3.174,3.174,0,0,1,1.122-.782,4.193,4.193,0,0,1,3.013,0,3.187,3.187,0,0,1,1.123.782,3.438,3.438,0,0,1,.7,1.177,4.41,4.41,0,0,1,.019,2.843,3.55,3.55,0,0,1-.666,1.177,3.268,3.268,0,0,1-1.079.823A3.332,3.332,0,0,1,883.875,573.871Z" fill="#717071"/><path d="M895.911,573.859c-.005-.154-.011-.306-.018-.457s-.013-.279-.013-.384v-4.051h-.732v2.818A3.077,3.077,0,0,1,895,572.8a2.1,2.1,0,0,1-.415.721,1.631,1.631,0,0,1-.623.427,2.085,2.085,0,0,1-.763.141,1.473,1.473,0,0,1-.713-.153,1.114,1.114,0,0,1-.427-.409,1.762,1.762,0,0,1-.213-.58,3.557,3.557,0,0,1-.061-.665v-3.318h-.733v3.355a4.722,4.722,0,0,0,.086.9,1.99,1.99,0,0,0,.323.775,1.721,1.721,0,0,0,.659.543,2.45,2.45,0,0,0,1.079.207,2.133,2.133,0,0,0,1.2-.336,1.956,1.956,0,0,0,.731-.8h.037a1.92,1.92,0,0,1,.031.379q.006.293.018.61h.732c0-.074,0-.178-.012-.311S895.914,574.014,895.911,573.859Z" fill="#717071"/><path d="M903.518,573.591c-.008-.187-.014-.391-.019-.61s-.006-.468-.006-.745v-1.378a1.863,1.863,0,0,0-.61-1.556,2.565,2.565,0,0,0-1.634-.482,3.58,3.58,0,0,0-1.148.2,2.592,2.592,0,0,0-1,.592l.426.5a2.578,2.578,0,0,1,1.721-.634,1.926,1.926,0,0,1,1.134.317,1.192,1.192,0,0,1,.451,1.05v.342h-.854a9.517,9.517,0,0,0-.957.055,3.831,3.831,0,0,0-1.025.243,2.058,2.058,0,0,0-.812.568,1.506,1.506,0,0,0-.329,1.025,1.557,1.557,0,0,0,.177.768,1.582,1.582,0,0,0,.457.519,1.893,1.893,0,0,0,.635.293,2.912,2.912,0,0,0,.72.091,2.458,2.458,0,0,0,1.189-.256,2.07,2.07,0,0,0,.788-.8h.023a5.264,5.264,0,0,0,.074.915h.683c-.024-.163-.043-.325-.055-.489S903.526,573.778,903.518,573.591Zm-.684-1.439a2.909,2.909,0,0,1-.085.7,1.536,1.536,0,0,1-.311.624,1.633,1.633,0,0,1-.6.444,2.344,2.344,0,0,1-.963.172,1.593,1.593,0,0,1-.458-.068,1.416,1.416,0,0,1-.409-.2.987.987,0,0,1-.3-.33.893.893,0,0,1-.117-.457.911.911,0,0,1,.207-.61,1.464,1.464,0,0,1,.556-.391,3.13,3.13,0,0,1,.781-.207,6.364,6.364,0,0,1,.9-.061h.8Z" fill="#717071"/><path d="M911.076,569.571a1.731,1.731,0,0,0-.653-.543,2.389,2.389,0,0,0-1.073-.208,2.129,2.129,0,0,0-1.2.336,1.972,1.972,0,0,0-.732.8h-.036a1.836,1.836,0,0,1-.031-.378c-.005-.2-.011-.4-.018-.61H906.6c0,.073.005.176.012.311s.015.279.019.434.01.306.018.457.012.278.012.384V574.6h.733v-2.819a3.071,3.071,0,0,1,.152-1.019,2.087,2.087,0,0,1,.415-.72,1.653,1.653,0,0,1,.622-.426,2.076,2.076,0,0,1,.763-.141,1.464,1.464,0,0,1,.713.153,1.121,1.121,0,0,1,.428.408,1.771,1.771,0,0,1,.213.58,3.542,3.542,0,0,1,.061.664v3.32h.732v-3.355a4.431,4.431,0,0,0-.091-.9A2.066,2.066,0,0,0,911.076,569.571Z" fill="#717071"/><path d="M917.018,574.037a1.756,1.756,0,0,1-.421.055.775.775,0,0,1-.573-.208.788.788,0,0,1-.207-.586v-3.672h1.61v-.659h-1.61v-1.623h-.733v1.623h-1.22v.659h1.22V573.3a1.9,1.9,0,0,0,.08.567,1.208,1.208,0,0,0,.25.458,1.163,1.163,0,0,0,.451.311,1.759,1.759,0,0,0,.671.116,2.1,2.1,0,0,0,.476-.062,4.1,4.1,0,0,0,.475-.133l-.06-.659A2.7,2.7,0,0,1,917.018,574.037Z" fill="#717071"/><path d="M924.753,573.859c0-.154-.01-.306-.018-.457s-.012-.279-.012-.384v-4.051h-.733v2.818a3.052,3.052,0,0,1-.152,1.018,2.049,2.049,0,0,1-.415.721,1.635,1.635,0,0,1-.622.427,2.087,2.087,0,0,1-.762.141,1.474,1.474,0,0,1-.714-.153,1.112,1.112,0,0,1-.426-.409,1.741,1.741,0,0,1-.215-.58,3.636,3.636,0,0,1-.061-.665v-3.318h-.731v3.355a4.8,4.8,0,0,0,.084.9,2.006,2.006,0,0,0,.324.775,1.713,1.713,0,0,0,.659.543,2.446,2.446,0,0,0,1.08.207,2.134,2.134,0,0,0,1.2-.336,1.979,1.979,0,0,0,.732-.8H924a1.87,1.87,0,0,1,.03.379q.008.293.019.61h.732c0-.074-.005-.178-.012-.311S924.758,574.014,924.753,573.859Z" fill="#717071"/><path d="M935.978,569.571a1.731,1.731,0,0,0-.653-.543,2.391,2.391,0,0,0-1.074-.208,2.284,2.284,0,0,0-1.116.293,1.823,1.823,0,0,0-.8.927,1.629,1.629,0,0,0-.672-.932,1.9,1.9,0,0,0-1.025-.288,2.128,2.128,0,0,0-1.2.336,1.976,1.976,0,0,0-.733.8h-.036a1.853,1.853,0,0,1-.03-.378c-.005-.2-.011-.4-.018-.61H927.9c0,.073.005.176.012.311s.014.279.019.434.009.306.018.457.012.278.012.384V574.6h.732v-2.819a3.043,3.043,0,0,1,.153-1.019,2.057,2.057,0,0,1,.415-.72,1.645,1.645,0,0,1,.622-.426,2.071,2.071,0,0,1,.762-.141.963.963,0,0,1,.885.476,2.42,2.42,0,0,1,.286,1.257V574.6h.733v-3.173a2.855,2.855,0,0,1,.079-.646,2,2,0,0,1,.269-.635,1.466,1.466,0,0,1,.518-.481,1.665,1.665,0,0,1,.841-.19,1.468,1.468,0,0,1,.714.153,1.121,1.121,0,0,1,.428.408,1.771,1.771,0,0,1,.213.58,3.547,3.547,0,0,1,.061.664v3.32h.733v-3.355a4.427,4.427,0,0,0-.092-.9A2.05,2.05,0,0,0,935.978,569.571Z" fill="#717071"/><path d="M950.089,573.353a3.275,3.275,0,0,1-.642.414,3.15,3.15,0,0,1-1.372.325,3.775,3.775,0,0,1-1.519-.294,3.373,3.373,0,0,1-1.152-.8,3.581,3.581,0,0,1-.733-1.208,4.528,4.528,0,0,1,0-3,3.567,3.567,0,0,1,.733-1.207,3.388,3.388,0,0,1,1.152-.8,3.793,3.793,0,0,1,1.519-.293,3.128,3.128,0,0,1,1.288.28,2.407,2.407,0,0,1,1.031.891l.658-.549a3.276,3.276,0,0,0-1.335-1.043,4.315,4.315,0,0,0-1.642-.311,4.689,4.689,0,0,0-1.811.341,4.162,4.162,0,0,0-1.41.946,4.346,4.346,0,0,0-.915,1.434,4.89,4.89,0,0,0-.33,1.818,4.945,4.945,0,0,0,.33,1.824,4.338,4.338,0,0,0,.915,1.439,4.074,4.074,0,0,0,1.41.939,4.744,4.744,0,0,0,1.811.336,4.257,4.257,0,0,0,1.769-.366,3.663,3.663,0,0,0,1.44-1.208l-.659-.5A2.676,2.676,0,0,1,950.089,573.353Z" fill="#717071"/><path d="M958.549,569.656a2.787,2.787,0,0,0-.939-.616,3.134,3.134,0,0,0-1.189-.22,3.182,3.182,0,0,0-1.2.22,2.71,2.71,0,0,0-.939.616,2.8,2.8,0,0,0-.61.94,3.325,3.325,0,0,0,0,2.379,2.812,2.812,0,0,0,.61.939,2.725,2.725,0,0,0,.939.616,3.2,3.2,0,0,0,1.2.22,3.153,3.153,0,0,0,1.189-.22,2.767,2.767,0,0,0,1.556-1.555,3.326,3.326,0,0,0,0-2.379A2.768,2.768,0,0,0,958.549,569.656Zm-.049,3.026a2.1,2.1,0,0,1-.444.732,2.152,2.152,0,0,1-.708.494,2.43,2.43,0,0,1-1.855,0,2.174,2.174,0,0,1-.708-.494,2.113,2.113,0,0,1-.444-.732,2.7,2.7,0,0,1,0-1.793,2.1,2.1,0,0,1,.444-.733,2.154,2.154,0,0,1,.708-.493,2.43,2.43,0,0,1,1.855,0,2.134,2.134,0,0,1,.708.493,2.084,2.084,0,0,1,.444.733,2.7,2.7,0,0,1,0,1.793Z" fill="#717071"/><path d="M970.263,569.571a1.731,1.731,0,0,0-.653-.543,2.4,2.4,0,0,0-1.074-.208,2.279,2.279,0,0,0-1.116.293,1.831,1.831,0,0,0-.8.927,1.619,1.619,0,0,0-.671-.932,1.9,1.9,0,0,0-1.024-.288,2.127,2.127,0,0,0-1.2.336,1.979,1.979,0,0,0-.732.8h-.037a1.858,1.858,0,0,1-.03-.378c-.005-.2-.01-.4-.019-.61h-.731c0,.073,0,.176.012.311s.014.279.017.434.011.306.019.457.012.278.012.384V574.6h.732v-2.819a3.1,3.1,0,0,1,.152-1.019,2.1,2.1,0,0,1,.416-.72,1.637,1.637,0,0,1,.622-.426,2.072,2.072,0,0,1,.763-.141.961.961,0,0,1,.884.476,2.419,2.419,0,0,1,.287,1.257V574.6h.732v-3.173a2.855,2.855,0,0,1,.079-.646,1.981,1.981,0,0,1,.269-.635,1.483,1.483,0,0,1,.518-.481,1.666,1.666,0,0,1,.842-.19,1.474,1.474,0,0,1,.714.153,1.115,1.115,0,0,1,.426.408,1.75,1.75,0,0,1,.214.58,3.541,3.541,0,0,1,.062.664v3.32h.731v-3.355a4.431,4.431,0,0,0-.092-.9A2.031,2.031,0,0,0,970.263,569.571Z" fill="#717071"/><path d="M981.877,569.571a1.716,1.716,0,0,0-.653-.543,2.389,2.389,0,0,0-1.073-.208,2.285,2.285,0,0,0-1.117.293,1.827,1.827,0,0,0-.8.927,1.621,1.621,0,0,0-.672-.932,1.9,1.9,0,0,0-1.025-.288,2.128,2.128,0,0,0-1.2.336,1.966,1.966,0,0,0-.732.8h-.036a1.762,1.762,0,0,1-.031-.378c-.005-.2-.011-.4-.018-.61h-.733c0,.073.005.176.012.311s.014.279.019.434.01.306.018.457.012.278.012.384V574.6h.733v-2.819a3.071,3.071,0,0,1,.152-1.019,2.071,2.071,0,0,1,.415-.72,1.645,1.645,0,0,1,.622-.426,2.071,2.071,0,0,1,.762-.141.964.964,0,0,1,.886.476,2.429,2.429,0,0,1,.286,1.257V574.6h.732v-3.173a2.912,2.912,0,0,1,.079-.646,2.026,2.026,0,0,1,.269-.635,1.461,1.461,0,0,1,.519-.481,1.662,1.662,0,0,1,.841-.19,1.464,1.464,0,0,1,.713.153,1.114,1.114,0,0,1,.428.408,1.769,1.769,0,0,1,.213.58,3.542,3.542,0,0,1,.061.664v3.32h.733v-3.355a4.427,4.427,0,0,0-.092-.9A2.034,2.034,0,0,0,981.877,569.571Z" fill="#717071"/><path d="M990.271,573.859c0-.154-.009-.306-.018-.457s-.012-.279-.012-.384v-4.051h-.732v2.818a3.026,3.026,0,0,1-.153,1.018,2.034,2.034,0,0,1-.415.721,1.635,1.635,0,0,1-.622.427,2.087,2.087,0,0,1-.762.141,1.474,1.474,0,0,1-.714-.153,1.111,1.111,0,0,1-.426-.409,1.741,1.741,0,0,1-.215-.58,3.636,3.636,0,0,1-.061-.665v-3.318h-.731v3.355a4.8,4.8,0,0,0,.084.9,1.992,1.992,0,0,0,.325.775,1.7,1.7,0,0,0,.658.543,2.446,2.446,0,0,0,1.08.207,2.134,2.134,0,0,0,1.2-.336,1.979,1.979,0,0,0,.732-.8h.037a1.983,1.983,0,0,1,.029.379c.005.2.011.4.02.61h.731c0-.074-.005-.178-.012-.311S990.276,574.014,990.271,573.859Z" fill="#717071"/><path d="M997.885,569.571a1.731,1.731,0,0,0-.653-.543,2.393,2.393,0,0,0-1.074-.208,2.128,2.128,0,0,0-1.2.336,1.975,1.975,0,0,0-.733.8H994.2a1.758,1.758,0,0,1-.031-.378c-.005-.2-.011-.4-.018-.61h-.733c0,.073.005.176.012.311s.014.279.019.434.01.306.018.457.012.278.012.384V574.6h.733v-2.819a3.071,3.071,0,0,1,.152-1.019,2.072,2.072,0,0,1,.415-.72,1.645,1.645,0,0,1,.622-.426,2.071,2.071,0,0,1,.762-.141,1.468,1.468,0,0,1,.714.153,1.128,1.128,0,0,1,.428.408,1.793,1.793,0,0,1,.213.58,3.631,3.631,0,0,1,.061.664v3.32h.731v-3.355a4.5,4.5,0,0,0-.09-.9A2.066,2.066,0,0,0,997.885,569.571Z" fill="#717071"/><rect width="0.733" height="5.637" transform="translate(1001.6 568.967)" fill="#717071"/><path d="M1001.967,566.185a.541.541,0,1,0,.389.158A.534.534,0,0,0,1001.967,566.185Z" fill="#717071"/><path d="M1006.638,570.156a2.154,2.154,0,0,1,.708-.493,2.26,2.26,0,0,1,.928-.184,1.712,1.712,0,0,1,.818.2,2.532,2.532,0,0,1,.694.555l.587-.44a3.039,3.039,0,0,0-.947-.719,2.607,2.607,0,0,0-1.152-.257,3.181,3.181,0,0,0-1.2.22,2.71,2.71,0,0,0-.939.616,2.811,2.811,0,0,0-.61.94,3.326,3.326,0,0,0,0,2.379,2.828,2.828,0,0,0,.61.939,2.725,2.725,0,0,0,.939.616,3.2,3.2,0,0,0,1.2.22,2.713,2.713,0,0,0,1.135-.238,2.624,2.624,0,0,0,.938-.739l-.561-.463a2.2,2.2,0,0,1-.665.567,1.706,1.706,0,0,1-.847.215,2.277,2.277,0,0,1-.928-.184,2.173,2.173,0,0,1-.708-.494,2.113,2.113,0,0,1-.444-.732,2.7,2.7,0,0,1,0-1.793A2.1,2.1,0,0,1,1006.638,570.156Z" fill="#717071"/><path d="M1017.12,573.591c-.009-.187-.014-.391-.019-.61s-.006-.468-.006-.745v-1.378a1.866,1.866,0,0,0-.61-1.556,2.566,2.566,0,0,0-1.635-.482,3.574,3.574,0,0,0-1.147.2,2.6,2.6,0,0,0-1,.592l.427.5a2.576,2.576,0,0,1,1.72-.634,1.927,1.927,0,0,1,1.134.317,1.191,1.191,0,0,1,.452,1.05v.342h-.854a9.5,9.5,0,0,0-.957.055,3.847,3.847,0,0,0-1.026.243,2.054,2.054,0,0,0-.811.568,1.5,1.5,0,0,0-.329,1.025,1.557,1.557,0,0,0,.176.768,1.584,1.584,0,0,0,.458.519,1.894,1.894,0,0,0,.635.293,2.9,2.9,0,0,0,.719.091,2.456,2.456,0,0,0,1.189-.256,2.057,2.057,0,0,0,.788-.8h.024a5.27,5.27,0,0,0,.074.915h.682c-.023-.163-.042-.325-.054-.489S1017.127,573.778,1017.12,573.591Zm-.684-1.439a2.91,2.91,0,0,1-.086.7,1.536,1.536,0,0,1-.311.624,1.625,1.625,0,0,1-.6.444,2.341,2.341,0,0,1-.963.172,1.586,1.586,0,0,1-.457-.068,1.436,1.436,0,0,1-.41-.2.986.986,0,0,1-.3-.33.978.978,0,0,1,.091-1.067,1.468,1.468,0,0,1,.555-.391,3.13,3.13,0,0,1,.781-.207,6.389,6.389,0,0,1,.9-.061h.8Z" fill="#717071"/><path d="M1022.616,574.037a1.77,1.77,0,0,1-.422.055.777.777,0,0,1-.573-.208.792.792,0,0,1-.207-.586v-3.672h1.611v-.659h-1.611v-1.623h-.732v1.623h-1.22v.659h1.22V573.3a1.972,1.972,0,0,0,.079.567,1.208,1.208,0,0,0,.25.458,1.19,1.19,0,0,0,.452.311,1.759,1.759,0,0,0,.671.116,2.116,2.116,0,0,0,.476-.062,4.172,4.172,0,0,0,.476-.133l-.061-.659A2.778,2.778,0,0,1,1022.616,574.037Z" fill="#717071"/><rect width="0.732" height="5.637" transform="translate(1025.672 568.967)" fill="#717071"/><path d="M1026.038,566.185a.54.54,0,1,0,.391.158A.534.534,0,0,0,1026.038,566.185Z" fill="#717071"/><path d="M1034.475,569.656a2.8,2.8,0,0,0-.94-.616,3.127,3.127,0,0,0-1.189-.22,3.168,3.168,0,0,0-1.195.22,2.7,2.7,0,0,0-.94.616,2.809,2.809,0,0,0-.61.94,3.326,3.326,0,0,0,0,2.379,2.826,2.826,0,0,0,.61.939,2.71,2.71,0,0,0,.94.616,3.188,3.188,0,0,0,1.195.22,3.146,3.146,0,0,0,1.189-.22,2.759,2.759,0,0,0,1.556-1.555,3.338,3.338,0,0,0,0-2.379A2.794,2.794,0,0,0,1034.475,569.656Zm-.049,3.026a2.088,2.088,0,0,1-.446.732,2.158,2.158,0,0,1-.707.494,2.428,2.428,0,0,1-1.854,0,2.151,2.151,0,0,1-.708-.494,2.115,2.115,0,0,1-.446-.732,2.72,2.72,0,0,1,0-1.793,2.1,2.1,0,0,1,.446-.733,2.133,2.133,0,0,1,.708-.493,2.427,2.427,0,0,1,1.854,0,2.139,2.139,0,0,1,.707.493,2.074,2.074,0,0,1,.446.733,2.7,2.7,0,0,1,0,1.793Z" fill="#717071"/><path d="M1042.906,570.345a2.067,2.067,0,0,0-.33-.774,1.731,1.731,0,0,0-.653-.543,2.394,2.394,0,0,0-1.074-.208,2.128,2.128,0,0,0-1.195.336,1.965,1.965,0,0,0-.732.8h-.036a1.766,1.766,0,0,1-.031-.378c-.005-.2-.011-.4-.018-.61h-.733c0,.073.005.176.012.311s.014.279.019.434.01.306.018.457.012.278.012.384V574.6h.733v-2.819a3.069,3.069,0,0,1,.152-1.019,2.072,2.072,0,0,1,.415-.72,1.645,1.645,0,0,1,.622-.426,2.071,2.071,0,0,1,.762-.141,1.468,1.468,0,0,1,.714.153,1.121,1.121,0,0,1,.428.408,1.769,1.769,0,0,1,.213.58,3.542,3.542,0,0,1,.061.664v3.32H1043v-3.355A4.426,4.426,0,0,0,1042.906,570.345Z" fill="#717071"/><path d="M981.522,516.023a.909.909,0,1,0-.909-.909A.909.909,0,0,0,981.522,516.023Z" fill="#c8c9ca"/><circle cx="0.909" cy="0.909" r="0.909" transform="translate(957.184 535.37)" fill="#c8c9ca"/><path d="M1044.934,505.995a.909.909,0,1,0,.909.909A.909.909,0,0,0,1044.934,505.995Z" fill="#c8c9ca"/><circle cx="0.909" cy="0.909" r="0.909" transform="translate(1035.131 517.742)" fill="#c8c9ca"/><circle cx="0.909" cy="0.909" r="0.909" transform="translate(1038.57 512.03)" fill="#c8c9ca"/><path d="M946.476,534.461a.909.909,0,1,0,.909.909A.909.909,0,0,0,946.476,534.461Z" fill="#c8c9ca"/><path d="M1042.207,508.751a1.815,1.815,0,0,0-.758,3.466L1029.81,553.9l-14.536-32.391-.261.118-.241-.154L998.2,547.588a2.245,2.245,0,0,0-.415-.147l1.95-16.492a1.815,1.815,0,1,0-1.466-2.967L978.06,516.016a2.275,2.275,0,1,0-3.9.447l-22.073,21.163-2.709-5.213a1.916,1.916,0,1,0-.509.262l2.886,5.554L952,538.1l.2.207,22.351-21.43a2.226,2.226,0,0,0,2.359.306l18.908,30.7a2.273,2.273,0,1,0,2.863.02l16.287-25.667,14.642,32.628.261-.117.276.077L1042,512.366a1.736,1.736,0,0,0,.205.021,1.818,1.818,0,0,0,0-3.636ZM977.4,516.875a2.215,2.215,0,0,0,.366-.371l20.215,11.968a1.8,1.8,0,0,0,1.194,2.408l-1.95,16.489a2.25,2.25,0,0,0-.917.2Z" fill="#c8c9ca"/><path d="M1044.934,515.114a.909.909,0,1,0,.909.909A.909.909,0,0,0,1044.934,515.114Z" fill="#036eb7"/><path d="M1051.49,511.121a.909.909,0,1,0,.909.909A.909.909,0,0,0,1051.49,511.121Z" fill="#036eb7"/><path d="M1015.014,519.357a2.272,2.272,0,1,0,2.272,2.273A2.272,2.272,0,0,0,1015.014,519.357Z" fill="#036eb7"/><path d="M952,536.279a1.819,1.819,0,1,0,1.819,1.818A1.818,1.818,0,0,0,952,536.279Z" fill="#036eb7"/><path d="M1029.873,552.924a1.818,1.818,0,1,0,1.818,1.818A1.818,1.818,0,0,0,1029.873,552.924Z" fill="#036eb7"/></g></svg>