<?xml version="1.0" encoding="UTF-8"?>
<svg id="Layer_1" xmlns="http://www.w3.org/2000/svg" width="1190.454" height="428.3402" version="1.1" viewBox="0 0 1190.454 428.3402">
  <!-- Generator: Adobe Illustrator 30.0.0, SVG Export Plug-In . SVG Version: 2.1.1 Build 123)  -->
  <g>
    <path d="M675.251,130.4025c0-1.8235-.529-3.5292-1.529-5.0586-1-1.4705-2.412-2.6469-4.059-3.3527-1.647-.7059-3.4709-.8823-5.235-.5294-1.765.3529-3.353,1.2352-4.647,2.4704-1.294,1.2941-2.117,2.8822-2.47,4.6468-.353,1.7646-.177,3.5881.529,5.235.706,1.647,1.824,3.0587,3.353,4.0586,1.47,1,3.235,1.5294,5.058,1.5294,2.412,0,4.706-.9412,6.412-2.647,1.705-1.7057,2.647-3.9997,2.647-6.4114l-.059.0589Z" fill="#0f161b"/>
    <path d="M190.748,160.1661c5.003,0,9.059-4.0555,9.059-9.0583s-4.056-9.0583-9.059-9.0583-9.058,4.0555-9.058,9.0583,4.055,9.0583,9.058,9.0583Z" fill="#0f161b"/>
    <path d="M232.217,160.1661c5.003,0,9.058-4.0555,9.058-9.0583s-4.055-9.0583-9.058-9.0583-9.058,4.0555-9.058,9.0583,4.055,9.0583,9.058,9.0583Z" fill="#0f161b"/>
    <path d="M317.683,139.402c5.003,0,9.058-4.0556,9.058-9.0584s-4.055-9.0583-9.058-9.0583-9.059,4.0556-9.059,9.0583,4.056,9.0584,9.059,9.0584Z" fill="#0f161b"/>
    <path d="M317.683,98.2867c5.003,0,9.058-4.0555,9.058-9.0583s-4.055-9.0583-9.058-9.0583-9.059,4.0556-9.059,9.0583,4.056,9.0583,9.059,9.0583Z" fill="#0f161b"/>
    <path d="M296.862,139.402c5.002,0,9.058-4.0556,9.058-9.0584s-4.056-9.0583-9.058-9.0583-9.059,4.0556-9.059,9.0583,4.056,9.0584,9.059,9.0584Z" fill="#0f161b"/>
    <path d="M296.862,118.9327c5.002,0,9.058-4.0555,9.058-9.0583s-4.056-9.0583-9.058-9.0583-9.059,4.0555-9.059,9.0583,4.056,9.0583,9.059,9.0583Z" fill="#0f161b"/>
    <path d="M276.216,139.402c5.003,0,9.058-4.0556,9.058-9.0584s-4.055-9.0583-9.058-9.0583-9.058,4.0556-9.058,9.0583,4.055,9.0584,9.058,9.0584Z" fill="#0f161b"/>
    <path d="M586.258,139.402c5.003,0,9.058-4.0556,9.058-9.0584s-4.055-9.0583-9.058-9.0583-9.058,4.0556-9.058,9.0583,4.055,9.0584,9.058,9.0584Z" fill="#0f161b"/>
    <path d="M565.553,139.402c5.003,0,9.058-4.0556,9.058-9.0584s-4.055-9.0583-9.058-9.0583-9.058,4.0556-9.058,9.0583,4.055,9.0584,9.058,9.0584Z" fill="#0f161b"/>
    <path d="M565.553,222.0431c5.003,0,9.058-4.055,9.058-9.058s-4.055-9.058-9.058-9.058-9.058,4.055-9.058,9.058,4.055,9.058,9.058,9.058Z" fill="#0f161b"/>
    <path d="M544.849,139.402c5.003,0,9.058-4.0556,9.058-9.0584s-4.055-9.0583-9.058-9.0583-9.059,4.0556-9.059,9.0583,4.056,9.0584,9.059,9.0584Z" fill="#0f161b"/>
    <path d="M180.4,139.4025c5.002,0,9.058-4.0556,9.058-9.0584s-4.056-9.0583-9.058-9.0583-9.0587,4.0555-9.0587,9.0583,4.0555,9.0584,9.0587,9.0584Z" fill="#0f161b"/>
    <path d="M242.574,139.4025c5.003,0,9.059-4.0556,9.059-9.0584s-4.056-9.0583-9.059-9.0583-9.058,4.0555-9.058,9.0583,4.055,9.0584,9.058,9.0584Z" fill="#0f161b"/>
    <path d="M180.4,222.0431c5.002,0,9.058-4.055,9.058-9.058s-4.056-9.058-9.058-9.058-9.0587,4.055-9.0587,9.058,4.0555,9.058,9.0587,9.058Z" fill="#0f161b"/>
    <path d="M242.574,222.0431c5.003,0,9.059-4.055,9.059-9.058s-4.056-9.058-9.059-9.058-9.058,4.055-9.058,9.058,4.055,9.058,9.058,9.058Z" fill="#0f161b"/>
    <path d="M296.862,222.0431c5.002,0,9.058-4.055,9.058-9.058s-4.056-9.058-9.058-9.058-9.059,4.055-9.059,9.058,4.056,9.058,9.059,9.058Z" fill="#0f161b"/>
    <path d="M296.862,160.1656c5.002,0,9.058-4.0555,9.058-9.0583s-4.056-9.0583-9.058-9.0583-9.059,4.0556-9.059,9.0583,4.056,9.0583,9.059,9.0583Z" fill="#0f161b"/>
    <path d="M296.862,180.7521c5.002,0,9.058-4.0556,9.058-9.0584s-4.056-9.0583-9.058-9.0583-9.059,4.0556-9.059,9.0583,4.056,9.0584,9.059,9.0584Z" fill="#0f161b"/>
    <path d="M296.862,201.3991c5.002,0,9.058-4.056,9.058-9.058s-4.056-9.059-9.058-9.059-9.059,4.056-9.059,9.059,4.056,9.058,9.059,9.058Z" fill="#0f161b"/>
    <path d="M666.193,139.402c5.002,0,9.058-4.0556,9.058-9.0584s-4.056-9.0583-9.058-9.0583-9.059,4.0556-9.059,9.0583,4.056,9.0584,9.059,9.0584Z" fill="#0f161b"/>
    <path d="M666.193,222.0431c5.002,0,9.058-4.055,9.058-9.058s-4.056-9.058-9.058-9.058-9.059,4.055-9.059,9.058,4.056,9.058,9.059,9.058Z" fill="#0f161b"/>
    <path d="M666.193,160.1656c5.002,0,9.058-4.0555,9.058-9.0583s-4.056-9.0583-9.058-9.0583-9.059,4.0556-9.059,9.0583,4.056,9.0583,9.059,9.0583Z" fill="#0f161b"/>
    <path d="M666.193,180.7521c5.002,0,9.058-4.0556,9.058-9.0584s-4.056-9.0583-9.058-9.0583-9.059,4.0556-9.059,9.0583,4.056,9.0584,9.059,9.0584Z" fill="#0f161b"/>
    <path d="M666.193,201.3991c5.002,0,9.058-4.056,9.058-9.058s-4.056-9.059-9.058-9.059-9.059,4.056-9.059,9.059,4.056,9.058,9.059,9.058Z" fill="#0f161b"/>
    <path d="M804.188,139.402c5.002,0,9.058-4.0556,9.058-9.0584s-4.056-9.0583-9.058-9.0583-9.059,4.0556-9.059,9.0583,4.056,9.0584,9.059,9.0584Z" fill="#0f161b"/>
    <path d="M804.188,222.0431c5.002,0,9.058-4.055,9.058-9.058s-4.056-9.058-9.058-9.058-9.059,4.055-9.059,9.058,4.056,9.058,9.059,9.058Z" fill="#0f161b"/>
    <path d="M804.188,160.1656c5.002,0,9.058-4.0555,9.058-9.0583s-4.056-9.0583-9.058-9.0583-9.059,4.0556-9.059,9.0583,4.056,9.0583,9.059,9.0583Z" fill="#0f161b"/>
    <path d="M804.188,180.7521c5.002,0,9.058-4.0556,9.058-9.0584s-4.056-9.0583-9.058-9.0583-9.059,4.0556-9.059,9.0583,4.056,9.0584,9.059,9.0584Z" fill="#0f161b"/>
    <path d="M804.188,201.3991c5.002,0,9.058-4.056,9.058-9.058s-4.056-9.059-9.058-9.059-9.059,4.056-9.059,9.059,4.056,9.058,9.059,9.058Z" fill="#0f161b"/>
    <path d="M866.238,222.0431c5.003,0,9.059-4.055,9.059-9.058s-4.056-9.058-9.059-9.058-9.058,4.055-9.058,9.058,4.056,9.058,9.058,9.058Z" fill="#0f161b"/>
    <path d="M866.238,180.7521c5.003,0,9.059-4.0556,9.059-9.0584s-4.056-9.0583-9.059-9.0583-9.058,4.0556-9.058,9.0583,4.056,9.0584,9.058,9.0584Z" fill="#0f161b"/>
    <path d="M866.238,201.3991c5.003,0,9.059-4.056,9.059-9.058s-4.056-9.059-9.059-9.059-9.058,4.056-9.058,9.059,4.056,9.058,9.058,9.058Z" fill="#0f161b"/>
    <path d="M586.258,118.9327c5.003,0,9.058-4.0555,9.058-9.0583s-4.055-9.0583-9.058-9.0583-9.058,4.0555-9.058,9.0583,4.055,9.0583,9.058,9.0583Z" fill="#0f161b"/>
    <path d="M586.258,98.2867c5.003,0,9.058-4.0555,9.058-9.0583s-4.055-9.0583-9.058-9.0583-9.058,4.0556-9.058,9.0583,4.055,9.0583,9.058,9.0583Z" fill="#0f161b"/>
    <path d="M666.193,98.2867c5.002,0,9.058-4.0555,9.058-9.0583s-4.056-9.0583-9.058-9.0583-9.059,4.0556-9.059,9.0583,4.056,9.0583,9.059,9.0583Z" fill="#0f161b"/>
    <path d="M907.12,139.402c5.003,0,9.059-4.0556,9.059-9.0584s-4.056-9.0583-9.059-9.0583-9.058,4.0556-9.058,9.0583,4.056,9.0584,9.058,9.0584Z" fill="#0f161b"/>
    <path d="M907.12,222.0431c5.003,0,9.059-4.055,9.059-9.058s-4.056-9.058-9.059-9.058-9.058,4.055-9.058,9.058,4.056,9.058,9.058,9.058Z" fill="#0f161b"/>
    <path d="M907.12,160.1656c5.003,0,9.059-4.0555,9.059-9.0583s-4.056-9.0583-9.059-9.0583-9.058,4.0556-9.058,9.0583,4.056,9.0583,9.058,9.0583Z" fill="#0f161b"/>
    <path d="M907.12,180.7521c5.003,0,9.059-4.0556,9.059-9.0584s-4.056-9.0583-9.059-9.0583-9.058,4.0556-9.058,9.0583,4.056,9.0584,9.058,9.0584Z" fill="#0f161b"/>
    <path d="M907.12,201.3991c5.003,0,9.059-4.056,9.059-9.058s-4.056-9.059-9.059-9.059-9.058,4.056-9.058,9.059,4.056,9.058,9.058,9.058Z" fill="#0f161b"/>
    <path d="M907.12,98.2867c5.003,0,9.059-4.0555,9.059-9.0583s-4.056-9.0583-9.059-9.0583-9.058,4.0556-9.058,9.0583,4.056,9.0583,9.058,9.0583Z" fill="#0f161b"/>
    <path d="M586.258,160.1656c5.003,0,9.058-4.0555,9.058-9.0583s-4.055-9.0583-9.058-9.0583-9.058,4.0556-9.058,9.0583,4.055,9.0583,9.058,9.0583Z" fill="#0f161b"/>
    <path d="M586.258,180.7521c5.003,0,9.058-4.0556,9.058-9.0584s-4.055-9.0583-9.058-9.0583-9.058,4.0556-9.058,9.0583,4.055,9.0584,9.058,9.0584Z" fill="#0f161b"/>
    <path d="M524.141,160.1656c5.002,0,9.058-4.0555,9.058-9.0583s-4.056-9.0583-9.058-9.0583-9.059,4.0556-9.059,9.0583,4.056,9.0583,9.059,9.0583Z" fill="#0f161b"/>
    <path d="M524.141,180.7521c5.002,0,9.058-4.0556,9.058-9.0584s-4.056-9.0583-9.058-9.0583-9.059,4.0556-9.059,9.0583,4.056,9.0584,9.059,9.0584Z" fill="#0f161b"/>
    <path d="M586.258,201.3991c5.003,0,9.058-4.056,9.058-9.058s-4.055-9.059-9.058-9.059-9.058,4.056-9.058,9.059,4.055,9.058,9.058,9.058Z" fill="#0f161b"/>
    <path d="M454.912,222.0431c5.003,0,9.059-4.055,9.059-9.058s-4.056-9.058-9.059-9.058-9.058,4.055-9.058,9.058,4.056,9.058,9.058,9.058Z" fill="#0f161b"/>
    <path d="M454.912,160.1656c5.003,0,9.059-4.0555,9.059-9.0583s-4.056-9.0583-9.059-9.0583-9.058,4.0556-9.058,9.0583,4.056,9.0583,9.058,9.0583Z" fill="#0f161b"/>
    <path d="M491.855,160.1656c5.002,0,9.058-4.0555,9.058-9.0583s-4.056-9.0583-9.058-9.0583-9.059,4.0556-9.059,9.0583,4.056,9.0583,9.059,9.0583Z" fill="#0f161b"/>
    <path d="M454.912,180.7521c5.003,0,9.059-4.0556,9.059-9.0584s-4.056-9.0583-9.059-9.0583-9.058,4.0556-9.058,9.0583,4.056,9.0584,9.058,9.0584Z" fill="#0f161b"/>
    <path d="M454.912,201.3991c5.003,0,9.059-4.056,9.059-9.058s-4.056-9.059-9.059-9.059-9.058,4.056-9.058,9.059,4.056,9.058,9.058,9.058Z" fill="#0f161b"/>
    <path d="M221.866,180.7521c5.003,0,9.059-4.0556,9.059-9.0584s-4.056-9.0583-9.059-9.0583-9.058,4.0556-9.058,9.0583,4.056,9.0584,9.058,9.0584Z" fill="#0f161b"/>
    <path d="M201.102,180.7521c5.003,0,9.058-4.0556,9.058-9.0584s-4.055-9.0583-9.058-9.0583-9.059,4.0556-9.059,9.0583,4.056,9.0584,9.059,9.0584Z" fill="#0f161b"/>
    <path d="M190.748,201.3391c5.003,0,9.059-4.055,9.059-9.058s-4.056-9.058-9.059-9.058-9.058,4.055-9.058,9.058,4.055,9.058,9.058,9.058Z" fill="#0f161b"/>
    <path d="M232.217,201.3391c5.003,0,9.058-4.055,9.058-9.058s-4.055-9.058-9.058-9.058-9.058,4.055-9.058,9.058,4.055,9.058,9.058,9.058Z" fill="#0f161b"/>
    <path d="M89.2853,160.1656c5.0027,0,9.0583-4.0555,9.0583-9.0583s-4.0556-9.0583-9.0583-9.0583-9.0583,4.0556-9.0583,9.0583,4.0555,9.0583,9.0583,9.0583Z" fill="#0f161b"/>
    <path d="M109.927,139.402c5.0027,0,9.0582-4.0556,9.0582-9.0584s-4.0555-9.0583-9.0582-9.0583-9.0584,4.0556-9.0584,9.0583,4.0556,9.0584,9.0584,9.0584Z" fill="#0f161b"/>
    <path d="M109.927,222.0431c5.0027,0,9.0582-4.055,9.0582-9.058s-4.0555-9.058-9.0582-9.058-9.0584,4.055-9.0584,9.058,4.0556,9.058,9.0584,9.058Z" fill="#0f161b"/>
    <path d="M130.6368,222.0431c5.0028,0,9.0584-4.055,9.0584-9.058s-4.0556-9.058-9.0584-9.058-9.0582,4.055-9.0582,9.058,4.0555,9.058,9.0582,9.058Z" fill="#0f161b"/>
    <path d="M89.2853,180.7521c5.0027,0,9.0583-4.0556,9.0583-9.0584s-4.0556-9.0583-9.0583-9.0583-9.0583,4.0556-9.0583,9.0583,4.0555,9.0584,9.0583,9.0584Z" fill="#0f161b"/>
    <path d="M89.2853,201.3391c5.0027,0,9.0583-4.055,9.0583-9.058s-4.0556-9.058-9.0583-9.058-9.0583,4.055-9.0583,9.058,4.0555,9.058,9.0583,9.058Z" fill="#0f161b"/>
    <path d="M151.3956,180.7521c5.0028,0,9.0584-4.0556,9.0584-9.0584s-4.0556-9.0583-9.0584-9.0583-9.0582,4.0556-9.0582,9.0583,4.0555,9.0584,9.0582,9.0584Z" fill="#0f161b"/>
    <path d="M151.3956,201.3391c5.0028,0,9.0584-4.055,9.0584-9.058s-4.0556-9.058-9.0584-9.058-9.0582,4.055-9.0582,9.058,4.0555,9.058,9.0582,9.058Z" fill="#0f161b"/>
    <path d="M160.3999,151.0486c0-3.9409-2.5293-7.2349-5.9997-8.5289-2.8821-1.0588-7.7643.4117-11.7052-3.4704-3.941-3.8821-2.4116-8.823-3.4704-11.7052-1.294-3.4704-4.5879-5.9997-8.5289-5.9997-2.5293,0-4.7644,1-6.4114,2.7057-1.6469,1.647-2.7057,3.941-2.7057,6.4114,0,3.941,2.5293,7.235,5.9996,8.529,2.8822,1.0588,7.7643-.4118,11.7052,3.4704,3.941,3.9409,2.4117,8.823,3.4705,11.7052,1.294,3.4704,4.5879,5.9997,8.5289,5.9997,2.5292,0,4.7644-1,6.4114-2.7058,1.6469-1.6469,2.7057-3.9409,2.7057-6.4114Z" fill="#0f161b"/>
    <path d="M875.302,151.0486c0-3.9409-2.529-7.2349-5.999-8.5289-2.883-1.0588-7.765.4117-11.706-3.4704-3.941-3.941-2.411-8.823-3.47-11.7052-1.294-3.4704-4.588-5.9997-8.5291-5.9997-2.529,0-4.764,1-6.4109,2.7057-1.647,1.647-2.706,3.941-2.706,6.4114,0,3.941,2.529,7.235,6,8.529,2.882,1.0588,7.764-.4118,11.705,3.4704,3.941,3.9409,2.411,8.823,3.47,11.7052,1.294,3.4704,4.588,5.9997,8.529,5.9997,2.529,0,4.765-1,6.412-2.7058,1.647-1.6469,2.705-3.9409,2.705-6.4114Z" fill="#0f161b"/>
    <path d="M1067.816,130.4025c0,3.9409-2.529,7.2349-6,8.5289-2.882,1.0588-7.764-.4118-11.705,3.4704-3.941,3.9409-2.412,8.823-3.47,11.7052-1.294,3.4704-4.588,5.9997-8.529,5.9997-2.53,0-4.765-1-6.412-2.7058-1.647-1.6469-2.705-3.9409-2.705-6.4114,0-3.9409,2.529-7.2349,5.999-8.5289,2.882-1.0588,7.765.4118,11.706-3.4704,3.94-3.8821,2.4109-8.823,3.47-11.7052,1.294-3.4704,4.588-5.9997,8.529-5.9997,2.529,0,4.764,1,6.411,2.7058,1.647,1.6469,2.706,3.9409,2.706,6.4114Z" fill="#0f161b"/>
    <path d="M704.483,201.2811c5.003,0,9.059-4.056,9.059-9.059s-4.056-9.058-9.059-9.058-9.058,4.056-9.058,9.058,4.056,9.059,9.058,9.059Z" fill="#0f161b"/>
    <path d="M725.068,222.0431c5.003,0,9.059-4.055,9.059-9.058s-4.056-9.058-9.059-9.058-9.058,4.055-9.058,9.058,4.056,9.058,9.058,9.058Z" fill="#0f161b"/>
    <path d="M725.068,139.402c5.003,0,9.059-4.0556,9.059-9.0584s-4.056-9.0583-9.059-9.0583-9.058,4.0556-9.058,9.0583,4.056,9.0584,9.058,9.0584Z" fill="#0f161b"/>
    <path d="M745.78,139.402c5.002,0,9.058-4.0556,9.058-9.0584s-4.056-9.0583-9.058-9.0583-9.059,4.0556-9.059,9.0583,4.056,9.0584,9.059,9.0584Z" fill="#0f161b"/>
    <path d="M824.83,139.402c5.003,0,9.058-4.0556,9.058-9.0584s-4.055-9.0583-9.058-9.0583-9.058,4.0556-9.058,9.0583,4.056,9.0584,9.058,9.0584Z" fill="#0f161b"/>
    <path d="M704.483,180.6931c5.003,0,9.059-4.0552,9.059-9.0579s-4.056-9.0584-9.059-9.0584-9.058,4.0556-9.058,9.0584,4.056,9.0579,9.058,9.0579Z" fill="#0f161b"/>
    <path d="M704.483,160.0465c5.003,0,9.059-4.0556,9.059-9.0584s-4.056-9.0582-9.059-9.0582-9.058,4.0555-9.058,9.0582,4.056,9.0584,9.058,9.0584Z" fill="#0f161b"/>
    <path d="M766.6,180.6931c5.002,0,9.058-4.0552,9.058-9.0579s-4.056-9.0584-9.058-9.0584-9.059,4.0556-9.059,9.0584,4.056,9.0579,9.059,9.0579Z" fill="#0f161b"/>
    <path d="M766.6,160.0465c5.002,0,9.058-4.0556,9.058-9.0584s-4.056-9.0582-9.058-9.0582-9.059,4.0555-9.059,9.0582,4.056,9.0584,9.059,9.0584Z" fill="#0f161b"/>
    <path d="M775.599,192.2811c0,3.941-2.529,7.235-6,8.529-2.882,1.059-7.764-.412-11.705,3.471-3.941,3.882-2.411,8.823-3.47,11.705-1.294,3.47-4.588,5.999-8.529,5.999-2.5291,0-4.765-.999-6.412-2.705-1.647-1.647-2.705-3.941-2.705-6.412,0-3.941,2.529-7.235,5.999-8.529,2.883-1.058,7.765.412,11.706-3.47,3.94-3.882,2.411-8.823,3.47-11.705,1.294-3.471,4.588-6,8.529-6,2.529,0,4.764,1,6.411,2.706,1.647,1.647,2.706,3.941,2.706,6.411Z" fill="#0f161b"/>
    <path d="M945.466,201.2811c5.003,0,9.058-4.056,9.058-9.059s-4.055-9.058-9.058-9.058-9.058,4.056-9.058,9.058,4.055,9.059,9.058,9.059Z" fill="#0f161b"/>
    <path d="M1100.647,201.2811c5.0001,0,9.05-4.056,9.05-9.059s-4.0499-9.058-9.05-9.058c-5.01,0-9.06,4.056-9.06,9.058s4.05,9.059,9.06,9.059Z" fill="#0f161b"/>
    <path d="M966.122,222.0431c5.003,0,9.059-4.055,9.059-9.058s-4.056-9.058-9.059-9.058-9.058,4.055-9.058,9.058,4.056,9.058,9.058,9.058Z" fill="#0f161b"/>
    <path d="M966.122,139.402c5.003,0,9.059-4.0556,9.059-9.0584s-4.056-9.0583-9.059-9.0583-9.058,4.0556-9.058,9.0583,4.056,9.0584,9.058,9.0584Z" fill="#0f161b"/>
    <path d="M986.822,139.402c5.0031,0,9.059-4.0556,9.059-9.0584s-4.056-9.0583-9.059-9.0583-9.058,4.0556-9.058,9.0583,4.056,9.0584,9.058,9.0584Z" fill="#0f161b"/>
    <path d="M1079.285,139.4025c5.002,0,9.062-4.0556,9.062-9.0584s-4.06-9.0583-9.062-9.0583-9.058,4.0555-9.058,9.0583,4.055,9.0584,9.058,9.0584Z" fill="#0f161b"/>
    <path d="M1099.987,139.4025c5,0,9.0599-4.0556,9.0599-9.0584s-4.0599-9.0583-9.0599-9.0583-9.06,4.0555-9.06,9.0583,4.06,9.0584,9.06,9.0584Z" fill="#0f161b"/>
    <path d="M1058.76,180.7521c5.003,0,9.058-4.0556,9.058-9.0584s-4.055-9.0583-9.058-9.0583-9.058,4.0556-9.058,9.0583,4.0551,9.0584,9.058,9.0584Z" fill="#0f161b"/>
    <path d="M1079.462,180.7521c5.005,0,9.055-4.0556,9.055-9.0584s-4.05-9.0583-9.055-9.0583-9.058,4.0556-9.058,9.0583,4.055,9.0584,9.058,9.0584Z" fill="#0f161b"/>
    <path d="M945.466,180.6931c5.003,0,9.058-4.0552,9.058-9.0579s-4.055-9.0584-9.058-9.0584-9.058,4.0556-9.058,9.0584,4.055,9.0579,9.058,9.0579Z" fill="#0f161b"/>
    <path d="M945.466,160.0465c5.003,0,9.058-4.0556,9.058-9.0584s-4.055-9.0582-9.058-9.0582-9.058,4.0555-9.058,9.0582,4.055,9.0584,9.058,9.0584Z" fill="#0f161b"/>
    <path d="M1007.586,160.0465c5.003,0,9.058-4.0556,9.058-9.0584s-4.055-9.0582-9.058-9.0582-9.058,4.0555-9.058,9.0582,4.055,9.0584,9.058,9.0584Z" fill="#0f161b"/>
    <path d="M1016.641,192.2811c0,3.941-2.529,7.235-5.999,8.529-2.883,1.059-7.765-.412-11.706,3.471-3.941,3.882-2.411,8.823-3.47,11.705-1.294,3.47-4.588,5.999-8.529,5.999-2.529,0-4.764-.999-6.411-2.705-1.647-1.647-2.706-3.941-2.706-6.412,0-3.941,2.529-7.235,6-8.529,2.882-1.058,7.764.412,11.705-3.47,3.941-3.882,2.411-8.823,3.47-11.705,1.294-3.471,4.588-6,8.529-6,2.529,0,4.764,1,6.411,2.706,1.647,1.647,2.706,3.941,2.706,6.411Z" fill="#0f161b"/>
    <path d="M407.734,201.2811c5.002,0,9.058-4.056,9.058-9.059s-4.056-9.058-9.058-9.058-9.059,4.056-9.059,9.058,4.056,9.059,9.059,9.059Z" fill="#0f161b"/>
    <path d="M387.088,222.0431c5.003,0,9.058-4.055,9.058-9.058s-4.055-9.058-9.058-9.058-9.058,4.055-9.058,9.058,4.055,9.058,9.058,9.058Z" fill="#0f161b"/>
    <path d="M387.088,139.402c5.003,0,9.058-4.0556,9.058-9.0584s-4.055-9.0583-9.058-9.0583-9.058,4.0556-9.058,9.0583,4.055,9.0584,9.058,9.0584Z" fill="#0f161b"/>
    <path d="M436.618,139.402c5.003,0,9.059-4.0556,9.059-9.0584s-4.056-9.0583-9.059-9.0583-9.058,4.0556-9.058,9.0583,4.056,9.0584,9.058,9.0584Z" fill="#0f161b"/>
    <path d="M473.379,139.402c5.003,0,9.058-4.0556,9.058-9.0584s-4.055-9.0583-9.058-9.0583-9.058,4.0556-9.058,9.0583,4.055,9.0584,9.058,9.0584Z" fill="#0f161b"/>
    <path d="M366.388,139.402c5.003,0,9.058-4.0556,9.058-9.0584s-4.055-9.0583-9.058-9.0583-9.058,4.0556-9.058,9.0583,4.055,9.0584,9.058,9.0584Z" fill="#0f161b"/>
    <path d="M407.734,180.6931c5.002,0,9.058-4.0552,9.058-9.0579s-4.056-9.0584-9.058-9.0584-9.059,4.0556-9.059,9.0584,4.056,9.0579,9.059,9.0579Z" fill="#0f161b"/>
    <path d="M407.734,160.0465c5.002,0,9.058-4.0556,9.058-9.0584s-4.056-9.0582-9.058-9.0582-9.059,4.0555-9.059,9.0582,4.056,9.0584,9.059,9.0584Z" fill="#0f161b"/>
    <path d="M345.623,180.6931c5.003,0,9.058-4.0552,9.058-9.0579s-4.055-9.0584-9.058-9.0584-9.058,4.0556-9.058,9.0584,4.055,9.0579,9.058,9.0579Z" fill="#0f161b"/>
    <path d="M345.623,160.0465c5.003,0,9.058-4.0556,9.058-9.0584s-4.055-9.0582-9.058-9.0582-9.058,4.0555-9.058,9.0582,4.055,9.0584,9.058,9.0584Z" fill="#0f161b"/>
    <path d="M336.625,192.2811c0,3.941,2.53,7.235,6,8.529,2.882,1.059,7.764-.412,11.705,3.471,3.941,3.941,2.412,8.823,3.471,11.705,1.294,3.47,4.588,5.999,8.529,5.999,2.529,0,4.764-.999,6.411-2.705,1.647-1.647,2.706-3.941,2.706-6.412,0-3.941-2.53-7.235-6-8.529-2.882-1.058-7.764.412-11.705-3.47-3.941-3.882-2.412-8.823-3.471-11.705-1.294-3.471-4.588-6-8.529-6-2.529,0-4.764,1-6.411,2.706-1.647,1.647-2.706,3.941-2.706,6.411Z" fill="#0f161b"/>
    <path d="M515.082,192.2811c0,3.941,2.53,7.235,6,8.529,2.882,1.059,7.764-.412,11.705,3.471,3.941,3.882,2.412,8.823,3.471,11.705,1.294,3.47,4.588,5.999,8.529,5.999,2.529,0,4.764-.999,6.411-2.705,1.647-1.647,2.706-3.941,2.706-6.412,0-3.941-2.53-7.235-6-8.529-2.882-1.058-7.764.412-11.705-3.47-3.941-3.882-2.412-8.823-3.47-11.705-1.295-3.471-4.589-6-8.529-6-2.53,0-4.765,1-6.412,2.706-1.647,1.647-2.706,3.941-2.706,6.411Z" fill="#0f161b"/>
    <path d="M1079.226,222.0431c5.001,0,9.061-4.055,9.061-9.058s-4.06-9.058-9.061-9.058-9.059,4.055-9.059,9.058,4.056,9.058,9.059,9.058Z" fill="#0f161b"/>
    <path d="M1058.641,222.0431c5.003,0,9.058-4.055,9.058-9.058s-4.055-9.058-9.058-9.058-9.059,4.055-9.059,9.058,4.056,9.058,9.059,9.058Z" fill="#0f161b"/>
    <path d="M1038.053,222.0431c5.003,0,9.058-4.055,9.058-9.058s-4.055-9.058-9.058-9.058-9.058,4.055-9.058,9.058,4.055,9.058,9.058,9.058Z" fill="#0f161b"/>
  </g>
  <g>
    <path d="M80.227,324.6271c0-8.118,6.1174-11.823,15.058-11.823,4.4116,0,7.7055,1.706,9.4701,3.176v-5.058c0-3.412-2.4117-6-6.4703-6-3.3527,0-5.4115,1.529-6.4702,3.529h-8.9995c2.1764-7.235,7.9408-11.117,15.9403-11.117,9.2936,0,15.705,5.647,15.705,14.352v23.764h-9.3524v-3.412c-1.7058,2.529-6.4702,4.294-10.7641,4.294-8.3525,0-14.1169-4.353-14.1169-11.588v-.117ZM104.7551,324.2741c0-3.294-3.2352-5.235-7.5879-5.235-4.5879,0-7.4701,1.882-7.4701,5.294s3.0586,5.47,7.176,5.47c4.2939,0,7.882-2.353,7.882-5.529Z" fill="#808083"/>
    <path d="M122.9882,298.0981h9.2936v4.412c1.8823-3.412,5.6468-5.294,10.9406-5.294,8.1172,0,13.1757,5.294,13.1757,14.234v23.823h-9.7641v-22.293c0-4.294-2.0588-7.353-6.8232-7.353-4.3527,0-7.1761,2.588-7.1761,7.588v22.058h-9.7641v-37.234l.1176.059Z" fill="#808083"/>
    <path d="M181.107,285.2171h10.058v50.115h-10.058v-50.115Z" fill="#808083"/>
    <path d="M199.451,319.3921v-5.294c0-9.529,6.352-16.823,17.528-16.823s17.528,7.294,17.528,16.823v5.294c0,9.529-6.352,16.822-17.528,16.822s-17.528-7.293-17.528-16.822ZM225.037,313.4511c0-4.882-2.588-8.529-8.117-8.529s-8.117,3.647-8.117,8.529v6.588c0,4.882,2.588,8.529,8.117,8.529s8.117-3.647,8.117-8.529v-6.588Z" fill="#808083"/>
    <path d="M241.749,298.0981h9.294v4.412c1.882-3.412,5.646-5.294,10.94-5.294,8.117,0,13.176,5.294,13.176,14.234v23.823h-9.764v-22.293c0-4.294-2.059-7.353-6.823-7.353-4.353,0-7.177,2.588-7.177,7.588v22.058h-9.764v-37.234l.118.059Z" fill="#808083"/>
    <path d="M327.624,313.9211c0,7.235-2.412,13.47-7.176,17.47l3.705,5.588-6.999,4.588-4.059-6.235c-2.353.647-4.941,1-7.823,1-14.705,0-22.352-9.647-22.352-22.411v-7.294c0-12.764,7.647-22.41,22.352-22.41s22.352,9.646,22.352,22.41v7.294ZM308.154,327.8611l-3.941-6.058,6.941-4.294,4,6c1.647-2.294,2.412-5.471,2.412-9v-8.293c0-7.941-3.941-13.588-12.294-13.588s-12.293,5.647-12.293,13.588v8.293c0,7.941,3.941,13.588,12.293,13.588,1,0,2-.059,2.882-.236Z" fill="#808083"/>
    <path d="M349.152,319.3921v-5.294c0-9.764,6.352-16.823,17.646-16.823,9.94,0,16.705,6.235,16.999,14.764h-8.882c-.412-3.647-2.706-6.882-7.882-6.882-5.529,0-8.117,3.588-8.117,8.588v6c0,4.999,2.588,8.588,8.117,8.588,5.176,0,7.47-3.236,7.882-6.882h8.882c-.294,8.529-7,14.763-16.999,14.763-11.235,0-17.646-7.117-17.646-16.822Z" fill="#808083"/>
    <path d="M389.325,319.3921v-5.294c0-9.529,6.352-16.823,17.528-16.823s17.528,7.294,17.528,16.823v5.294c0,9.529-6.352,16.822-17.528,16.822s-17.528-7.293-17.528-16.822ZM414.97,313.4511c0-4.882-2.588-8.529-8.117-8.529s-8.117,3.647-8.117,8.529v6.588c0,4.882,2.588,8.529,8.117,8.529s8.117-3.647,8.117-8.529v-6.588Z" fill="#808083"/>
    <path d="M431.621,298.0981h9.293v4.412c1.883-3.412,5.471-5.294,10.764-5.294,4.824,0,8.529,1.941,10.765,5.294,2.705-3.529,6.882-5.294,12.293-5.294,7.823,0,13.293,5.294,13.293,14.234v23.823h-9.764v-22.293c0-4.294-1.941-7.353-6.646-7.353-4.294,0-6.941,2.588-6.941,7.588v22.058h-9.764v-22.293c0-4.294-1.942-7.353-6.647-7.353-4.353,0-6.941,2.588-6.941,7.588v22.058h-9.764v-37.234l.059.059Z" fill="#808083"/>
    <path d="M532.612,313.6861v6.176c0,8.941-5.588,16.411-15.588,16.411-4.941,0-8.764-2-10.646-4.882v16.47h-9.764v-49.703h9.293v4.411c1.882-2.882,5.647-5.294,11.058-5.294,10.235,0,15.706,7.588,15.706,16.411h-.059ZM506.319,314.0981v5.47c0,5.647,3.706,8.823,8.176,8.823,5.529,0,8.352-3.705,8.352-8.94v-5.294c0-4.941-2.646-8.941-8.293-8.941-4.941,0-8.235,3.706-8.235,8.941v-.059Z" fill="#808083"/>
    <path d="M538.321,324.6271c0-8.118,6.117-11.823,15.058-11.823,4.411,0,7.705,1.706,9.47,3.176v-5.058c0-3.412-2.412-6-6.47-6-3.353,0-5.412,1.529-6.471,3.529h-8.999c2.176-7.235,7.941-11.117,15.999-11.117,9.294,0,15.705,5.647,15.705,14.352v23.764h-9.353v-3.412c-1.705,2.529-6.47,4.294-10.764,4.294-8.352,0-14.116-4.353-14.116-11.588l-.059-.117ZM562.79,324.2741c0-3.294-3.235-5.235-7.588-5.235-4.588,0-7.47,1.882-7.47,5.294s3.059,5.47,7.176,5.47c4.294,0,7.882-2.353,7.882-5.529Z" fill="#808083"/>
    <path d="M581.022,298.0981h9.293v4.412c1.882-3.412,5.647-5.294,10.941-5.294,8.117,0,13.175,5.294,13.175,14.234v23.823h-9.764v-22.293c0-4.294-2.059-7.353-6.823-7.353-4.353,0-7.176,2.588-7.176,7.588v22.058h-9.764v-37.234l.118.059Z" fill="#808083"/>
    <path d="M627.901,347.8021l3.706-12.588-12.882-37.115h9.764l8,26.704,7.588-26.704h9.646l-16.2339,49.703h-9.588Z" fill="#808083"/>
  </g>
</svg>