<?xml version="1.0" encoding="UTF-8"?> <svg xmlns="http://www.w3.org/2000/svg" width="152" height="45" viewBox="0 0 152 45" fill="none"><path d="M56.5437 10.4202H66.6281C67.9735 10.4202 69.1961 10.6789 70.3022 11.1899C71.4018 11.7009 72.2751 12.4513 72.9219 13.428C73.5688 14.4048 73.8922 15.595 73.8922 16.9986C73.8922 18.4023 73.5688 19.5925 72.9219 20.5757C72.2751 21.5589 71.4018 22.3093 70.3022 22.8203C69.2025 23.3313 67.98 23.59 66.6281 23.59H59.4933V33.5127H56.5437V10.4202ZM59.4933 12.7618V21.2614H66.1494C67.6048 21.2614 68.7756 20.8927 69.6618 20.1488C70.548 19.4049 70.9943 18.3635 70.9943 17.0116C70.9943 15.6596 70.548 14.6053 69.6618 13.8679C68.7756 13.1305 67.6048 12.7618 66.1494 12.7618H59.4933Z" fill="#1E1E1E"></path><path d="M76.3316 22.2059V21.7272C76.4998 20.2006 77.2113 18.991 78.4662 18.1113C79.7146 17.2316 81.3964 16.7853 83.4987 16.7853C85.601 16.7853 87.2246 17.2704 88.4148 18.2342C89.605 19.2045 90.2001 20.7052 90.2001 22.7492V33.5063H87.5351V31.1647H87.2116C86.9788 31.6046 86.6295 32.0251 86.1767 32.439C85.7239 32.853 85.1158 33.1894 84.359 33.4546C83.6022 33.7198 82.6384 33.8556 81.4741 33.8556C79.7405 33.8556 78.3239 33.4352 77.2243 32.5878C76.1246 31.7404 75.5748 30.5502 75.5748 29.0107C75.5748 27.9499 75.8206 27.0896 76.3187 26.4104C76.8168 25.7377 77.5024 25.2137 78.3692 24.845C79.2424 24.4763 80.2257 24.224 81.3253 24.0817L87.451 23.312V22.5746C87.451 21.2615 87.1081 20.3106 86.4225 19.7349C85.7368 19.1592 84.7342 18.8681 83.4081 18.8681C82.0821 18.8681 81.0342 19.1398 80.2645 19.6832C79.4947 20.2265 79.0549 21.061 78.9514 22.1865H76.3187L76.3316 22.2059ZM78.3692 28.959C78.3692 29.8322 78.6991 30.5179 79.3653 31.0095C80.0251 31.5011 80.9178 31.7469 82.0304 31.7469C83.0136 31.7469 83.9192 31.5593 84.7471 31.1777C85.5751 30.796 86.2349 30.2139 86.7265 29.4247C87.2181 28.6356 87.4639 27.62 87.4639 26.3781V25.4013L81.8686 26.1258C80.8013 26.2746 79.9475 26.5592 79.3201 26.9861C78.6861 27.4065 78.3757 28.0663 78.3757 28.9655L78.3692 28.959Z" fill="#1E1E1E"></path><path d="M93.905 21.5334C93.905 20.0909 94.5001 18.9395 95.6838 18.0857C96.8675 17.2319 98.5105 16.8049 100.606 16.8049C102.702 16.8049 104.377 17.2383 105.594 18.0986C106.81 18.9589 107.508 20.1427 107.676 21.6498V22.1285H105.063C104.998 20.9836 104.565 20.1621 103.763 19.6511C102.961 19.1401 101.919 18.8878 100.639 18.8878C99.3579 18.8878 98.3812 19.1142 97.689 19.567C96.9969 20.0198 96.6476 20.6472 96.6476 21.4364C96.6476 22.2255 96.9258 22.8012 97.4821 23.1505C98.0383 23.5063 98.7434 23.7521 99.5972 23.8879L102.437 24.3666C104.054 24.6253 105.361 25.0846 106.376 25.7444C107.385 26.4042 107.89 27.4715 107.89 28.9334C107.89 30.3952 107.314 31.5725 106.156 32.491C105.005 33.4096 103.31 33.8688 101.072 33.8688C98.834 33.8688 97.0681 33.4096 95.7614 32.491C94.4548 31.5725 93.7303 30.3629 93.5815 28.8687V28.39H96.1948C96.2918 29.5414 96.7834 30.4017 97.6761 30.958C98.5688 31.5143 99.6943 31.7924 101.053 31.7924C102.411 31.7924 103.433 31.5402 104.112 31.0356C104.798 30.5311 105.141 29.8778 105.141 29.0821C105.141 28.2865 104.843 27.7173 104.242 27.368C103.64 27.0122 102.825 26.7535 101.79 26.5853L98.9504 26.1196C97.4562 25.8738 96.2401 25.4016 95.3022 24.7094C94.3642 24.0173 93.8985 22.9565 93.8985 21.5334H93.905Z" fill="#1E1E1E"></path><path d="M126.358 39.923H123.538V31.294H123.214C122.852 31.915 122.251 32.4971 121.41 33.047C120.569 33.5968 119.379 33.8749 117.826 33.8749C116.416 33.8749 115.142 33.558 114.01 32.9176C112.878 32.2837 111.979 31.3328 111.325 30.065C110.665 28.7972 110.342 27.2253 110.342 25.343C110.342 23.4606 110.672 21.8759 111.325 20.6145C111.985 19.3532 112.878 18.4023 114.01 17.7619C115.142 17.1215 116.416 16.7981 117.826 16.7981C119.411 16.7981 120.627 17.0892 121.487 17.6713C122.348 18.2535 122.962 18.881 123.337 19.5537H123.661L124.172 17.1668H126.352V39.923H126.358ZM123.648 25.3494C123.648 23.3054 123.163 21.7465 122.199 20.6598C121.229 19.5731 119.967 19.0297 118.408 19.0297C116.849 19.0297 115.588 19.5731 114.624 20.6598C113.66 21.7465 113.182 23.3054 113.182 25.3494C113.182 27.3935 113.66 28.9395 114.624 30.0262C115.588 31.1129 116.849 31.6562 118.408 31.6562C119.967 31.6562 121.235 31.1129 122.199 30.0262C123.169 28.9395 123.648 27.3806 123.648 25.3494Z" fill="#1E1E1E"></path><path d="M130.79 22.2059V21.7272C130.958 20.2006 131.67 18.991 132.924 18.1113C134.173 17.2316 135.855 16.7853 137.957 16.7853C140.059 16.7853 141.683 17.2704 142.873 18.2342C144.063 19.2045 144.658 20.7052 144.658 22.7492V33.5063H141.993V31.1647H141.67C141.437 31.6046 141.088 32.0251 140.635 32.439C140.182 32.853 139.574 33.1894 138.817 33.4546C138.06 33.7198 137.097 33.8556 135.932 33.8556C134.199 33.8556 132.782 33.4352 131.682 32.5878C130.583 31.7404 130.033 30.5502 130.033 29.0107C130.033 27.9499 130.279 27.0896 130.777 26.4104C131.275 25.7377 131.961 25.2137 132.827 24.845C133.701 24.4763 134.684 24.224 135.784 24.0817L141.909 23.312V22.5746C141.909 21.2615 141.566 20.3106 140.881 19.7349C140.195 19.1592 139.192 18.8681 137.866 18.8681C136.54 18.8681 135.492 19.1398 134.723 19.6832C133.953 20.2265 133.513 21.061 133.41 22.1865H130.777L130.79 22.2059ZM132.827 28.959C132.827 29.8322 133.157 30.5179 133.824 31.0095C134.483 31.5011 135.376 31.7469 136.489 31.7469C137.472 31.7469 138.377 31.5593 139.205 31.1777C140.033 30.796 140.693 30.2139 141.185 29.4247C141.676 28.6356 141.922 27.62 141.922 26.3781V25.4013L136.327 26.1258C135.26 26.2746 134.406 26.5592 133.778 26.9861C133.144 27.4065 132.834 28.0663 132.834 28.9655L132.827 28.959Z" fill="#1E1E1E"></path><path d="M149.18 10.4203H152V33.5128H149.18V10.4203Z" fill="#1E1E1E"></path><path d="M8.17331 6.15075C9.04656 6.16368 9.62225 6.62295 9.89393 7.21805H14.1373C14.4025 6.59707 14.9911 6.1184 15.8902 6.099C18.4517 6.14428 18.4517 9.95422 15.8902 9.9995C14.9976 9.98656 14.4219 9.51436 14.1502 8.90633H9.91981C9.6546 9.5273 9.07243 10.0124 8.17331 10.0318C5.62472 9.98656 5.62472 6.19603 8.17331 6.15722V6.15075Z" fill="#1E1E1E"></path><path d="M11.3552 24.4438C8.79364 24.3986 8.79364 20.5886 11.3552 20.5433C13.9167 20.5886 13.9167 24.3986 11.3552 24.4438Z" fill="#1E1E1E"></path><path d="M7.94712 38.6422C5.72843 38.6034 5.44382 35.7249 7.08681 34.9551V30.7506C5.36619 30.0068 5.63787 27.0377 7.90184 26.9989C10.1593 27.0377 10.4375 29.9809 8.74275 30.7442V34.9293C10.4569 35.6602 10.1852 38.6034 7.94065 38.6422H7.94712Z" fill="#1E1E1E"></path><path d="M3.73556 21.9274C4.05898 23.0335 3.45094 24.4371 1.91144 24.463C-0.637147 24.4177 -0.637147 20.6272 1.91144 20.5884C2.13784 20.5884 2.36423 20.6272 2.58416 20.6983L5.80547 17.4123C5.44971 16.2804 6.05775 14.8249 7.63606 14.8055C10.2105 14.8508 10.2105 18.6866 7.63606 18.7255C7.41613 18.7255 7.1962 18.6866 6.98274 18.622L3.73556 21.9274Z" fill="#1E1E1E"></path><path d="M14.5634 12.7938C17.112 12.8391 17.112 16.6296 14.5634 16.6685C12.0149 16.6232 12.0149 12.8326 14.5634 12.7938Z" fill="#1E1E1E"></path><path d="M12.6355 30.2721C12.6743 27.73 16.5231 27.7559 16.536 30.2721C16.536 32.8272 12.6355 32.8531 12.6355 30.2721Z" fill="#1E1E1E"></path><path d="M22.3775 35.4468C19.8289 35.4015 19.8289 31.611 22.3775 31.5721C24.9261 31.6174 24.9261 35.408 22.3775 35.4468Z" fill="#1E1E1E"></path><path d="M22.378 24.4438C19.8165 24.3986 19.8165 20.5886 22.378 20.5433C24.9395 20.5886 24.9395 24.3986 22.378 24.4438Z" fill="#1E1E1E"></path><path d="M22.2929 44.6708C20.7728 44.645 20.1647 43.293 20.4494 42.1869L17.3251 39.095C17.1181 39.1597 16.8982 39.1985 16.6782 39.1985C14.1296 39.1532 14.1296 35.3627 16.6782 35.3239C18.2371 35.3497 18.8452 36.7793 18.4894 37.8983L21.5555 40.932C21.7883 40.8415 22.0406 40.7962 22.2864 40.7962C24.835 40.8415 24.835 44.632 22.2864 44.6708H22.2929Z" fill="#1E1E1E"></path><path d="M27.9801 9.63092C26.4148 9.60505 25.8067 8.17551 26.1496 7.04999L23.2129 4.10683C23.0123 4.17151 22.7989 4.20385 22.5919 4.20385C20.0433 4.15857 20.0433 0.368035 22.5919 0.329224C24.1508 0.355098 24.7524 1.78464 24.4095 2.89722L27.3398 5.82745C27.5468 5.76276 27.7667 5.72395 27.9801 5.72395C30.5417 5.76923 30.5417 9.58564 27.9801 9.62445V9.63092Z" fill="#1E1E1E"></path><path d="M30.1658 32.232C27.6172 32.232 27.5784 28.3574 30.1658 28.3445C32.695 28.3574 32.6562 32.232 30.1658 32.232Z" fill="#1E1E1E"></path><path d="M23.7482 10.1354C25.5723 11.9078 22.7908 14.6375 21.012 12.8587C19.1879 11.0863 21.9887 8.29838 23.7482 10.1354Z" fill="#1E1E1E"></path><path d="M30.1457 12.7938C32.6943 12.8391 32.6943 16.6296 30.1457 16.6685C27.5971 16.6232 27.5971 12.8326 30.1457 12.7938Z" fill="#1E1E1E"></path><path d="M36.5755 38.8037C35.7217 38.7908 35.1589 38.3574 34.8678 37.7881H30.6116C30.3593 38.4609 29.7577 38.9913 28.8198 38.9913C26.3294 38.946 26.2841 35.149 28.8198 35.0778C29.6866 35.0778 30.2623 35.5177 30.5404 36.0999H34.7837C35.036 35.4401 35.6311 34.9161 36.569 34.9032C39.1306 34.9485 39.1306 38.7649 36.569 38.8037H36.5755Z" fill="#1E1E1E"></path><path d="M33.3874 20.5497C35.9489 20.595 35.9489 24.4049 33.3874 24.4502C30.8194 24.4049 30.8194 20.595 33.3874 20.5497Z" fill="#1E1E1E"></path><path d="M36.7969 6.36426C39.0286 6.40307 39.3196 9.30095 37.6572 10.0772V14.2429C39.4167 14.9544 39.1579 17.9558 36.8875 17.9946C34.6817 17.9558 34.3777 15.1226 35.969 14.314V10.0966C34.2677 9.34623 34.5459 6.40307 36.7969 6.37073V6.36426Z" fill="#1E1E1E"></path><path d="M42.6053 24.5279C42.4112 24.5279 42.2236 24.5021 42.0361 24.4503L38.9506 27.594C39.3128 28.7195 38.7048 30.1685 37.1265 30.1943C34.5649 30.1491 34.5649 26.3391 37.1265 26.2938C37.3399 26.2938 37.5534 26.3327 37.7604 26.3909L40.807 23.286C40.4125 22.1605 41.0076 20.6792 42.5988 20.6469C45.1474 20.6921 45.1474 24.4827 42.5988 24.5215L42.6053 24.5279Z" fill="#1E1E1E"></path></svg> 