<?xml version="1.0" encoding="UTF-8"?> <svg xmlns="http://www.w3.org/2000/svg" id="Layer_3" data-name="Layer 3" viewBox="0 0 727.84 111.84"><defs><style> .cls-1 { fill: #0078ff; } </style></defs><g><path d="M157.31,109.33V.78c0-.34.28-.62.62-.62h36.08c8.57,0,15.66,1.41,21.25,4.24,5.59,2.82,9.75,6.67,12.47,11.53,2.72,4.86,4.08,10.38,4.08,16.55s-1.33,11.22-4,16.08-6.77,8.76-12.31,11.69c-5.54,2.93-12.71,4.39-21.49,4.39h-22.34c-.14,0-.25.11-.25.25v44.46c0,.34-.28.62-.62.62h-12.87c-.34,0-.62-.28-.62-.62ZM171.43,52.61c0,.14.11.25.25.25h22.02c8.47,0,14.53-1.86,18.2-5.57,3.66-3.71,5.49-8.65,5.49-14.82,0-6.59-1.83-11.66-5.49-15.21-3.66-3.55-9.73-5.33-18.2-5.33h-22.02c-.14,0-.25.11-.25.25v40.44Z"></path><path d="M240.9,109.33V.78c0-.34.28-.62.62-.62h12.87c.34,0,.62.28.62.62v43.66c0,.25.32.33.45.11,2.58-4.34,6.12-7.76,10.61-10.28,4.76-2.67,9.96-4,15.61-4,9.1,0,16.34,2.82,21.72,8.47,5.38,5.65,8.08,14.33,8.08,26.04v44.55c0,.34-.28.62-.62.62h-12.71c-.34,0-.62-.28-.62-.62v-43.14c0-7.95-1.6-13.91-4.78-17.88-3.19-3.97-7.98-5.96-14.35-5.96s-12.13,2.38-16.63,7.14c-4.5,4.76-6.74,11.48-6.74,20.16v39.69c0,.34-.28.62-.62.62h-12.87c-.34,0-.62-.28-.62-.62Z"></path><path d="M361.6,111.84c-7.63,0-14.49-1.7-20.55-5.1-6.07-3.4-10.82-8.16-14.27-14.27s-5.18-13.25-5.18-21.41,1.75-15.42,5.25-21.49c3.5-6.06,8.31-10.8,14.43-14.2,6.12-3.4,12.99-5.1,20.63-5.1s14.48,1.7,20.55,5.1c6.06,3.4,10.82,8.13,14.27,14.2,3.45,6.07,5.18,13.23,5.18,21.49s-1.75,15.29-5.25,21.41c-3.5,6.12-8.29,10.88-14.35,14.27-6.07,3.4-12.97,5.1-20.71,5.1ZM361.6,99.76c4.71,0,9.02-1.07,12.94-3.22,3.92-2.14,7.06-5.36,9.41-9.65,2.35-4.29,3.53-9.57,3.53-15.84s-1.18-11.69-3.53-15.92c-2.35-4.24-5.47-7.42-9.33-9.57-3.87-2.14-8.11-3.22-12.71-3.22s-8.86,1.1-12.78,3.29c-3.92,2.2-7.09,5.39-9.49,9.57-2.41,4.18-3.61,9.47-3.61,15.84s1.18,11.56,3.53,15.84c2.35,4.29,5.46,7.5,9.33,9.65,3.87,2.14,8.1,3.22,12.71,3.22Z"></path><path d="M436.17,109.96c-4.39,0-8.11-.55-11.14-1.65-3.03-1.1-5.31-3.16-6.82-6.2-1.52-3.03-2.27-7.32-2.27-12.86v-44.93c0-.14-.11-.25-.25-.25h-12.62c-.34,0-.62-.28-.62-.62v-10.67c0-.34.28-.62.62-.62h12.62c.14,0,.25-.11.25-.25V13.8c0-.34.28-.62.62-.62h12.87c.34,0,.62.28.62.62v18.11c0,.14.11.25.25.25h21.09c.34,0,.62.28.62.62v10.67c0,.34-.28.62-.62.62h-21.09c-.14,0-.25.11-.25.25v42.73c0,3.35.26,5.8.78,7.37.52,1.57,1.62,2.54,3.29,2.9,1.67.37,4.08.55,7.22.55h8.94c.34,0,.62.28.62.62v10.83c0,.34-.28.62-.62.62h-14.12Z"></path><path d="M493.84,111.84c-7.63,0-14.49-1.7-20.55-5.1-6.07-3.4-10.82-8.16-14.27-14.27-3.45-6.12-5.18-13.25-5.18-21.41s1.75-15.42,5.25-21.49c3.5-6.06,8.31-10.8,14.43-14.2,6.12-3.4,12.99-5.1,20.63-5.1s14.48,1.7,20.55,5.1c6.06,3.4,10.82,8.13,14.27,14.2,3.45,6.07,5.18,13.23,5.18,21.49s-1.75,15.29-5.25,21.41c-3.5,6.12-8.29,10.88-14.35,14.27-6.07,3.4-12.97,5.1-20.71,5.1ZM493.84,99.76c4.71,0,9.02-1.07,12.94-3.22,3.92-2.14,7.06-5.36,9.41-9.65,2.35-4.29,3.53-9.57,3.53-15.84s-1.18-11.69-3.53-15.92c-2.35-4.24-5.47-7.42-9.33-9.57-3.87-2.14-8.11-3.22-12.71-3.22s-8.86,1.1-12.78,3.29c-3.92,2.2-7.09,5.39-9.49,9.57-2.41,4.18-3.61,9.47-3.61,15.84s1.18,11.56,3.53,15.84c2.35,4.29,5.46,7.5,9.33,9.65,3.87,2.14,8.1,3.22,12.71,3.22Z"></path><path d="M544.32,109.33V32.78c0-.34.28-.62.62-.62h12.87c.34,0,.62.28.62.62v11.33c0,.25.32.33.45.11,2.48-4.22,5.88-7.57,10.22-10.03,4.6-2.61,9.83-3.92,15.69-3.92,9.2,0,16.52,2.82,21.96,8.47,5.44,5.65,8.16,14.33,8.16,26.04v44.55c0,.34-.28.62-.62.62h-12.87c-.34,0-.62-.28-.62-.62v-43.14c0-7.95-1.65-13.91-4.94-17.88-3.29-3.97-8.18-5.96-14.67-5.96s-12.03,2.38-16.31,7.14c-4.29,4.76-6.43,11.48-6.43,20.16v39.69c0,.34-.28.62-.62.62h-12.87c-.34,0-.62-.28-.62-.62Z"></path><path d="M626.51,16.63V.62c0-.34.28-.62.62-.62h15.85c.34,0,.62.28.62.62v16.01c0,.34-.28.62-.62.62h-15.85c-.34,0-.62-.28-.62-.62ZM628.08,109.33V32.78c0-.34.28-.62.62-.62h12.87c.34,0,.62.28.62.62v76.55c0,.34-.28.62-.62.62h-12.87c-.34,0-.62-.28-.62-.62Z"></path><path d="M692.23,111.84c-7.43,0-14.09-1.73-20-5.18-5.91-3.45-10.59-8.24-14.04-14.35-3.45-6.12-5.18-13.2-5.18-21.25s1.73-15.27,5.18-21.33c3.45-6.06,8.13-10.82,14.04-14.27,5.91-3.45,12.57-5.18,20-5.18,9.41,0,17.28,2.43,23.61,7.29,6.12,4.71,10.11,10.95,11.98,18.74.09.39-.21.79-.62.79h-13.31c-.28,0-.52-.2-.59-.47-1.11-4.38-3.55-7.83-7.34-10.36-3.92-2.61-8.5-3.92-13.73-3.92-4.29,0-8.34,1.1-12.16,3.29-3.82,2.2-6.88,5.41-9.18,9.65-2.3,4.24-3.45,9.49-3.45,15.76s1.15,11.4,3.45,15.69c2.3,4.29,5.36,7.53,9.18,9.72,3.82,2.2,7.87,3.29,12.16,3.29,5.23,0,9.8-1.28,13.73-3.84,3.79-2.47,6.24-5.95,7.34-10.43.07-.27.31-.47.59-.47h13.31c.4,0,.71.39.62.78-1.77,7.59-5.74,13.79-11.9,18.59-6.38,4.97-14.27,7.45-23.69,7.45Z"></path></g><path class="cls-1" d="M82.52,52.09l25.66-12.25c1.26-.6,2.06-1.87,2.06-3.27V3.78c0-2-1.62-3.62-3.62-3.62h-33c-1.39,0-2.67.8-3.27,2.06l-12.68,26.21c-1.1,2.28-4.35,2.26-5.43-.03L39.89,2.22c-.6-1.26-1.87-2.06-3.27-2.06H3.62C1.62.16,0,1.78,0,3.78v32.79c0,1.39.8,2.67,2.06,3.27l25.66,12.25c2.5,1.19,2.5,4.75,0,5.94l-25.66,12.26c-1.26.6-2.06,1.87-2.06,3.27v32.79c0,2,1.62,3.62,3.62,3.62h33.01c1.39,0,2.67-.8,3.27-2.06l12.26-25.65c1.19-2.5,4.75-2.5,5.94,0l12.25,25.65c.6,1.26,1.87,2.06,3.27,2.06h33.01c2,0,3.62-1.62,3.62-3.62v-32.79c0-1.39-.8-2.67-2.06-3.27l-25.66-12.26c-2.5-1.19-2.5-4.75,0-5.94ZM77.15,58.81l26.75,40.75c.7,1.07.56,2.5-.35,3.4l-.04.04c-.9.9-2.31,1.05-3.39.36l-41.3-26.56c-2.25-1.45-5.15-1.45-7.4,0l-41.3,26.56c-1.07.68-2.48.54-3.39-.36l-.03-.04c-.91-.9-1.06-2.33-.36-3.4l26.75-40.75c1.5-2.28,1.5-5.23,0-7.51L6.34,10.55c-.7-1.07-.55-2.49.36-3.4l.03-.03c.9-.9,2.31-1.05,3.39-.36l41.3,26.56c2.25,1.45,5.15,1.45,7.4,0L100.12,6.75c1.07-.69,2.48-.54,3.39.36l.04.03c.91.91,1.05,2.33.35,3.4l-26.75,40.75c-1.49,2.28-1.49,5.23,0,7.51Z"></path></svg> 