<svg id="Ebene_1" style="width: 235px; padding-top: 15px;" data-name="Ebene 1" xmlns="http://www.w3.org/2000/svg" viewBox="0 0 332.29 68.1"><defs><style>.cls-1{fill:#004070;}</style></defs><path class="cls-1" d="M85.15,62.46a33.34,33.34,0,0,0-3.6-8.76,59.73,59.73,0,0,1-10.24,10c-12.93,10.32-31.52,19-49,23.6.34.61.7,1.22,1.08,1.81C40,86.37,58.12,79.6,72,72.06,78.05,68.74,82.43,65.5,85.15,62.46Zm-9.25-16A33.59,33.59,0,0,0,70.26,42a67.76,67.76,0,0,1-6.84,9C52.66,63.24,36.23,74.83,20.11,82.42c.21.57.43,1.15.67,1.71a165.18,165.18,0,0,0,43-24.6C70,54.64,73.94,50.24,75.9,46.46Zm2.7,31.05c-14.68,8-34.77,13.34-52.89,14.79A34,34,0,0,0,86.14,72.86,74.45,74.45,0,0,1,78.6,77.51ZM55.31,48.19a62.27,62.27,0,0,0,7.25-9.74A34,34,0,0,0,19,78.81,166.61,166.61,0,0,0,55.31,48.19Z" transform="translate(-18.11 -36.82)"></path><path class="cls-1" d="M115.69,95.57V55.34H97.19V46.83H142.7v8.51H124.21V95.57Z" transform="translate(-18.11 -36.82)"></path><path class="cls-1" d="M148.34,95.57V46.83h43.5v8.51H156.78V87.06h35.13v8.51ZM163,74.38V67.21h27v7.17Z" transform="translate(-18.11 -36.82)"></path><path class="cls-1" d="M199.21,95.57V87.06h36.54A7.39,7.39,0,0,0,241,85.31a6.06,6.06,0,0,0,1.84-4.62A5.91,5.91,0,0,0,241,76a7.94,7.94,0,0,0-5.26-1.57H213.36a17.92,17.92,0,0,1-6.2-1,13.51,13.51,0,0,1-4.7-2.89,12.65,12.65,0,0,1-2.94-4.39,14.65,14.65,0,0,1-1-5.57,14.91,14.91,0,0,1,1-5.45,11.55,11.55,0,0,1,2.88-4.33,13.8,13.8,0,0,1,4.73-2.85,18.53,18.53,0,0,1,6.43-1h35v8.51h-35a6.27,6.27,0,0,0-4.56,1.58,5.92,5.92,0,0,0-1.61,4.39A5.68,5.68,0,0,0,209,65.67a6.25,6.25,0,0,0,4.46,1.54h22.32q7.44,0,11.29,3.49t3.86,10.58A16.69,16.69,0,0,1,250,87a12.28,12.28,0,0,1-2.81,4.52,12.76,12.76,0,0,1-4.73,3,18.76,18.76,0,0,1-6.66,1.07H199.21Z" transform="translate(-18.11 -36.82)"></path><path class="cls-1" d="M305.93,95.57l-7.31-12.28H275.56l4-6.9h15L283.67,58.16,261.56,95.57h-9.72l28-46.66a6.4,6.4,0,0,1,1.74-2,4,4,0,0,1,2.42-.73,3.83,3.83,0,0,1,2.38.73,6.59,6.59,0,0,1,1.71,2l28.08,46.66Z" transform="translate(-18.11 -36.82)"></path><path class="cls-1" d="M323.39,95.57V55.34H304.88V46.83H350.4v8.51H331.9V95.57Z" transform="translate(-18.11 -36.82)"></path></svg>
